<svg xmlns="http://www.w3.org/2000/svg" width="805" height="400"><rect width="805" height="400" x="0" y="0" fill="#FFFFFF" id="background"/><g id="viz"><g transform="translate(0,0)"><g transform="translate(10,20)"><g><path fill="#9467bd" d="M0,216.94070909602496C5.684299596127834,215.99134506825123,11.368599192255669,215.04198104047757,17.054044402118922,215.01541537755C22.739489611982176,214.98884971462243,28.426080435580836,215.88508241654105,34.108088804237845,215.80029598237502C39.79009717289485,215.71550954820898,45.46752308661021,214.64970397795844,51.162133206356756,216.36372610169997C56.856743326103306,218.0777482254415,62.56853765188103,222.57159804317502,68.26290101779655,223.65153430500004C73.95726438371207,224.73147056682507,79.63419678976541,222.39749327274149,85.31694541991548,219.28373703749998C90.99969405006556,216.16998080225846,96.68825890431233,212.2764456258591,102.37098982203442,210.25890753000002C108.0537207397565,208.24136943414092,113.73061772095384,208.09982841882223,119.42503422415332,208.34255697600003C125.1194507273528,208.58528553317782,130.83138675255432,209.2122836628521,136.5258020355931,205.7829662625C142.22021731863188,202.3536488621479,147.89711185950802,194.8680159317694,153.57984643771204,194.64938755385C159.26258101591606,194.4307591759306,164.9511556314479,201.4791353504703,170.63389083983097,181.50651667092504C176.31662604821403,161.53389799137977,181.99352184944829,114.54028445774954,187.6879352419499,98.00507234050002C193.38234863445152,81.4698602232505,199.09427961822058,95.3930495223817,204.7887030533897,100.26043244349995C210.4831264885588,105.1278153646182,216.16004237512803,100.93939190772349,221.8427474555086,96.81199087675002C227.52545253588917,92.68458984577654,233.213946810081,88.61821124072432,238.89679185762753,84.08656152940003C244.57963690517406,79.55491181807574,250.25683272607512,74.55799100047936,255.95083625974644,75.622706813325C261.64483979341776,76.68742262617063,267.35565103985954,83.81377506945829,273.04965726246456,75.249544875C278.7436634850696,66.68531468054171,284.4208646838378,42.43050184833746,290.10370166458347,66.36868767997501C295.78653864532913,90.30687351161257,301.47501140805184,162.43805800709197,307.1577460667024,190.8307152997C312.8404807253529,219.223372592308,318.51747727993103,203.8775026820447,324.21179046882133,201.49566185305002C329.90610365771164,199.11382102405534,335.6177334809141,209.6960092763292,341.3125582802611,218.70784834959997C347.0073830796081,227.71968742287075,352.68540285509965,235.16117731713854,358.36854949110176,242.34379512737505C364.05169612710387,249.52641293761155,369.73996962361633,256.4501586638169,375.42259389322066,261.746539824475C381.105218162825,267.0429209851331,386.78219320552085,270.71193758024384,392.47663829533957,272.1458124598C398.1710833851583,273.5796873393562,403.8829985220996,272.7784205033576,409.5774061067794,275.2308967909C415.27181369145916,277.68337307844234,420.9487137238772,283.3895924895257,426.6314505088983,290.307140071675C432.3141872939194,297.22468765382433,438.00276083154347,305.3535634070394,443.6854949110172,310.27142277654997C449.36822899049093,315.1892821460605,455.0451236118144,316.8961251318665,460.7395393131361,315.9690413373776C466.4339550144578,315.04195754288867,472.1458917957778,311.4809469681047,477.84030712457593,310.42700580459245C483.53472245337406,309.3730646410802,489.21161632964987,310.82619288883956,494.89435152669483,308.022939711875C500.5770867237398,305.2196865349104,506.26566324155397,298.16005193322184,511.94839592881374,297.37901628975C517.6311286160735,296.59798064627813,523.3080174727785,302.09554396102305,529.0024403309327,303.687600181175C534.6968631890869,305.279656401327,540.4088200486902,302.9662055268858,546.1032081423724,300.40325462894253C551.7975962360546,297.84030373099927,557.4744155638153,295.0278528095539,563.1572525444915,291.774800226495C568.8400895251676,288.52174764343613,574.5289441587596,284.8280933987637,580.2112969466103,278.460318352065C585.8936497344611,272.09254330536623,591.5695006765706,263.050647456641,597.2633945400075,258.14766311538C602.9572884034445,253.244678774119,608.6692251882092,252.48060594032216,614.3641623514474,249.9896742858225C620.0590995146855,247.49874263132284,625.737037056397,243.28095215612015,631.420153562288,241.674308433435C637.103270068179,240.06766471074982,642.791565538249,241.0721677405822,648.4741979644069,240.825360075405C654.1568303905649,240.57855241022781,659.8337997728104,239.08043405004105,665.5282423665258,238.59115893251249C671.2226849602412,238.10188381498392,676.9346007654265,238.62145194011347,682.6290101779656,237.9046898552925C688.3234195905047,237.18792777047153,694.000322610397,235.23483547570012,699.6830545800844,234.2232730721175C705.3657865497719,233.2117106685349,711.0543474692547,233.1416781561412,716.7370989822035,234.28939108522502C722.4198504951523,235.43710401430883,728.0967926015667,237.80256238487013,733.7911433843224,240.5462494497075C739.4854941670781,243.28993651454485,745.1972536261752,246.41185227365807,750.8919111957622,248.810270528235C756.5865687653492,251.20868878281195,762.2641244454264,252.8836095328527,767.945955597881,255.1841250604575C773.6277867503356,257.4846405880623,779.3138933751678,260.4107508932311,785,263.3368611984L785,263.3368611984C779.3138933751679,260.41075089502226,773.6277867503359,257.4846405916446,767.945955597881,255.1841250604575C762.2641244454262,252.8836095292704,756.586568765349,251.20868877027377,750.8919111957622,248.810270528235C745.1972536261753,246.41185228619625,739.4854941670782,243.28993656111544,733.7911433843224,240.5462494497075C728.0967926015666,237.80256233829954,722.4198504951521,235.43710384056456,716.7370989822035,234.28939108522502C711.0543474692549,233.14167832988548,705.3657865497721,233.21171131694138,699.6830545800844,234.2232730721175C694.0003226103968,235.23483482729364,688.3234195905044,237.18792535058998,682.6290101779656,237.9046898552925C676.9346007654268,238.62145435999503,671.2226849602414,238.1018928461037,665.5282423665258,238.59115893251249C659.8337997728102,239.08042501892126,654.1568303905648,240.57851870563024,648.4741979644069,240.825360075405C642.7915655382491,241.07220144517976,637.1032700681789,240.06779049802014,631.420153562288,241.674308433435C625.7370370563971,243.28082636884983,620.0590995146854,247.49827318683904,614.3641623514474,249.9896742858225C608.6692251882093,252.48107538480596,602.9572884034447,253.24643076478372,597.2633945400075,258.163693405245C591.5695006765703,263.0809560457063,585.893649734461,272.1501259466508,580.2112969466103,278.51581553007C574.5289441587597,284.88150511348914,568.8400895251677,288.5437143793827,563.1572525444915,291.845181989895C557.4744155638152,295.14664960040733,551.7975962360543,298.0873755555383,546.1032081423724,300.6604824860925C540.4088200486905,303.23358941664674,534.6968631890869,305.4390773226242,529.0024403309327,304.168733391875C523.3080174727785,302.89838946112576,517.6311286160733,298.15221369364974,511.94839592881374,299.63199360225C506.2656632415542,301.1117735108503,500.57708672373997,308.81750909552665,494.89435152669483,312.49516082937504C489.2116163296497,316.17281256322343,483.534722453374,315.82238044624387,477.84030712457593,318.29592905109246C472.14589179577786,320.76947765594105,466.4339550144577,326.06700698261807,460.7395393131361,330.0123605180725C455.0451236118145,333.95771405352696,449.3682289904911,336.5508917977586,443.6854949110172,335.81256988359996C438.0027608315433,335.07424796944133,432.31418729391936,331.0044263968925,426.6314505088983,325.93364882117504C420.94871372387723,320.8628712454576,415.2718136914591,314.7911376665711,409.5774061067794,314.8027774819C403.8829985220997,314.81441729722894,398.1710833851583,320.90943050677305,392.47663829533957,323.3407600933C386.78219320552085,325.77208967982693,381.10521816282494,324.5397356433367,375.42259389322066,325.65827351747504C369.7399696236164,326.77681139161336,364.0516961271038,330.24624117638047,358.36854949110176,326.47513157387505C352.6854028550997,322.7040219713696,347.0073830796081,311.6923729815917,341.3125582802611,304.01147760009997C335.6177334809141,296.33058221860824,329.90610365771164,291.98044044540256,324.21179046882133,294.84144453205C318.51747727993103,297.7024486186974,312.84048072535285,307.77459856519766,307.1577460667024,282.3379014187C301.4750114080519,256.9012042722024,295.78653864532913,195.9556600327068,290.10370166458347,175.819028966475C284.4208646838378,155.68239790024322,278.74366348506953,176.35468000727502,273.04965726246456,184.740840375C267.3556510398596,193.127000742725,261.6448397934179,189.22703937114306,255.95083625974644,187.21277319382503C250.25683272607503,185.198507016507,244.57963690517403,185.06993603345265,238.89679185762753,184.48144507209997C233.21394681008104,183.8929541107473,227.52545253588912,182.8445431710963,221.8427474555086,184.26837840175C216.16004237512809,185.6922136324037,210.4831264885588,189.58829503336221,204.7887030533897,186.2060907385C199.09427961822058,182.82388644363778,193.38234863445152,172.1633964529549,187.6879352419499,185.9926645855C181.99352184944829,199.82193271804508,176.31662604821403,238.140958973818,170.63389083983097,251.230803010925C164.9511556314479,264.320647048032,159.26258101591606,252.18130886647313,153.57984643771204,251.09924794565C147.89711185950802,250.01718702482688,142.2202173186319,259.9924033647395,136.5258020355931,263.82469903500004C130.8313867525543,267.65699470526056,125.11945072735273,265.3463697058688,119.42503422415332,265.679223966C113.73061772095392,266.01207822613117,108.05372073975651,268.9884117457851,102.37098982203442,277.073068545C96.68825890431232,285.15772534421495,90.99969405006553,298.3507054229907,85.31694541991548,301.4978523525C79.63419678976544,304.6449992820093,73.9572643837121,297.74631306225183,68.26290101779655,290.767824945C62.56853765188101,283.7893368277481,56.8567433261033,276.73104681300174,51.162133206356756,272.2353393783C45.467523086610214,267.7396319435983,39.79009717289486,265.80650708894086,34.108088804237845,265.125940217625C28.426080435580833,264.4453733463091,22.73948961198217,265.01736445833467,17.054044402118922,265.55304811244997C11.368599192255676,266.0887317665653,5.684299596127838,266.58810796277015,0,267.08748415897503Z"><title>Tape</title></path><path fill="#1f77b4" d="M0,267.08748415897503C5.684299596127834,266.5881776118399,11.368599192255669,266.08887106470485,17.054044402118922,265.55304811244997C22.739489611982176,265.0172251601951,28.426080435580836,264.44488580282024,34.108088804237845,265.125940217625C39.79009717289485,265.80699463242973,45.46752308661021,267.7414428194142,51.162133206356756,272.2353393783C56.856743326103306,276.7292359371858,62.56853765188103,283.782580867973,68.26290101779655,290.767824945C73.95726438371207,297.7530690220269,79.63419678976541,304.67021224529356,85.31694541991548,301.4978523525C90.99969405006556,298.3254924597064,96.68825890431233,285.06362945085243,102.37098982203442,277.073068545C108.0537207397565,269.0825076391476,113.73061772095384,266.3632488362966,119.42503422415332,265.679223966C125.1194507273528,264.9951990957034,130.83138675255432,266.3464081579613,136.5258020355931,263.82469903500004C142.22021731863188,261.30298991203875,147.89711185950802,254.90836260385797,153.57984643771204,252.09924794565C159.26258101591606,249.29013328744205,164.9511556314479,250.0665312792068,170.63389083983097,252.230803010925C176.31662604821403,254.3950747426432,181.99352184944829,257.9472202143148,187.6879352419499,256.1822181165C193.38234863445152,254.4172160186852,199.09427961822058,247.33506635138417,204.7887030533897,243.857820135C210.4831264885588,240.38057391861582,216.16004237512803,240.50823115314856,221.8427474555086,228.64422594825C227.52545253588917,216.78022074335146,233.213946810081,192.9245530990215,238.89679185762753,185.48144507209997C244.57963690517406,178.03833704517845,250.25683272607512,187.00778863566535,255.95083625974644,188.21277319382503C261.64483979341776,189.4177577519847,267.35565103985954,182.85827527781709,273.04965726246456,185.740840375C278.7436634850696,188.62340547218292,284.4208646838378,200.94801814071633,290.10370166458347,176.819028966475C295.78653864532913,152.69003979223368,301.47501140805184,92.10744877521759,307.1577460667024,66.70990807455C312.8404807253529,41.31236737388242,318.51747727993103,51.099876989563356,324.21179046882133,53.67237520005C329.90610365771164,56.24487341053664,335.6177334809141,51.60236021582901,341.3125582802611,43.68770156669999C347.0073830796081,35.773042917570976,352.68540285509965,24.586238814020554,358.36854949110176,20.862921289725037C364.05169612710387,17.13960376542952,369.73996962361633,20.87977282038889,375.42259389322066,21.99158773297502C381.105218162825,23.10340264556115,386.78219320552085,21.586863415774033,392.47663829533957,23.8282166943C398.1710833851583,26.069569972825967,403.8829985220996,32.068815759665,409.5774061067794,30.811982367899944C415.27181369145916,29.555148976134888,420.9487137238772,21.042236405765735,426.6314505088983,15.710233488674987C432.3141872939194,10.378230571584238,438.00276083154347,8.227137307771887,443.6854949110172,9.142227703049983C449.36822899049093,10.057318098328079,455.0451236118144,14.038592152696626,460.7395393131361,17.50722255687754C466.4339550144578,20.975852961058454,472.1458917957778,23.931839715051716,477.84030712457593,28.17254712059249C483.53472245337406,32.413254526133265,489.21161632964987,37.938682583221535,494.89435152669483,42.537065868675036C500.5770867237398,47.13544915412854,506.26566324155397,50.806787667947276,511.94839592881374,51.46764913689998C517.6311286160735,52.12851060585268,523.3080174727785,49.77889502993934,529.0024403309327,49.691189850579995C534.6968631890869,49.60348467122065,540.4088200486902,51.777689888415296,546.1032081423724,54.3395175139075C551.7975962360546,56.90134513939971,557.4744155638153,59.85079517318951,563.1572525444915,63.15481801010495C568.8400895251676,66.45884084702038,574.5289441587596,70.11743648706141,580.2112969466103,76.48418446993001C585.8936497344611,82.85093245279862,591.5695006765706,91.92583277849481,597.2633945400075,96.83630659475499C602.9572884034445,101.74678041101517,608.6692251882092,102.49282771783923,614.3641623514474,106.0103257141775C620.0590995146855,109.52782371051576,625.737037056397,115.81677239636812,631.420153562288,114.32569156656501C637.103270068179,112.8346107367619,642.791565538249,103.56350039130332,648.4741979644069,115.174639924595C654.1568303905649,126.78577945788668,659.8337997728104,159.27916886992858,665.5282423665258,168.78819452958749C671.2226849602412,178.2972201892464,676.9346007654265,164.82188209652222,682.6290101779656,167.16825755055748C688.3234195905047,169.51463300459275,694.000322610397,187.68272200538738,699.6830545800844,194.7372193830325C705.3657865497719,201.79171676067764,711.0543474692547,197.7326225151732,716.7370989822035,198.81605979566498C722.4198504951523,199.89949707615676,728.0967926015667,206.1254658826446,733.7911433843224,210.2636187967975C739.4854941670781,214.40177171095038,745.1972536261752,216.45210873276835,750.8919111957622,219.747736814005C756.5865687653492,223.04336489524167,762.2641244454264,227.58428403589693,767.945955597881,231.15802575576254C773.6277867503356,234.73176747562815,779.3138933751678,237.3383317747041,785,239.94489607378003L785,249.17176748983C779.3138933751679,246.52323213526464,773.6277867503359,243.87469678069925,767.945955597881,241.8391432294975C762.2641244454262,239.80358967829574,756.586568765349,238.38101793045774,750.8919111957622,236.32579311568003C745.1972536261753,234.2705683009023,739.4854941670782,231.58269041918493,733.7911433843224,228.3545742362575C728.0967926015666,225.12645805333005,722.4198504951521,221.35810356919242,716.7370989822035,222.23181070399002C711.0543474692549,223.10551783878762,705.3657865497721,228.62128659252033,699.6830545800844,223.5813884136775C694.0003226103968,218.54149023483467,688.3234195905044,202.94592512341643,682.6290101779656,202.4676476441775C676.9346007654268,201.98937016493858,671.2226849602414,216.62838031787894,665.5282423665258,210.38112820358248C659.8337997728102,204.13387608928602,654.1568303905648,177.00036170775266,648.4741979644069,168.12192417968C642.7915655382491,159.24348665160736,637.1032700681789,168.62012597699547,631.420153562288,174.01447733909C625.7370370563971,179.40882870118455,620.0590995146854,180.82089209998563,614.3641623514474,183.3073116712025C608.6692251882093,185.7937312424194,602.9572884034447,189.354506986052,597.2633945400075,194.40555645881497C591.5695006765703,199.45660593157794,585.893649734461,205.99792913347127,580.2112969466103,214.63700947738C574.5289441587597,223.2760898212887,568.8400895251677,234.01292730721275,563.1572525444915,241.69242745652497C557.4744155638152,249.3719276058372,551.7975962360543,253.99409041853767,546.1032081423724,261.32154534250753C540.4088200486905,268.6490002664774,534.6968631890869,278.6817473017165,529.0024403309327,282.70786104808C523.3080174727785,286.73397479444355,517.6311286160733,284.75345525193154,511.94839592881374,286.87772632015003C506.2656632415542,289.0019973883685,500.57708672373997,295.2310590673172,494.89435152669483,299.694043382625C489.2116163296497,304.15702769793285,483.534722453374,306.8539346495997,477.84030712457593,309.42700580459245C472.14589179577786,312.0000769595852,466.4339550144577,314.44931231790383,460.7395393131361,314.9690413373776C455.0451236118145,315.4887703568513,449.3682289904911,314.07899303747996,443.6854949110172,309.27142277654997C438.0027608315433,304.46385251562,432.31418729391936,296.2584893131313,426.6314505088983,289.307140071675C420.94871372387723,282.3557908302187,415.2718136914591,276.6584555497946,409.5774061067794,274.2308967909C403.8829985220997,271.80333803200534,398.1710833851583,272.6455557946402,392.47663829533957,271.1458124598C386.78219320552085,269.64606912495987,381.10521816282494,265.8043646926447,375.42259389322066,260.746539824475C369.7399696236164,255.68871495630532,364.0516961271038,249.41476965228097,358.36854949110176,241.34379512737505C352.6854028550997,233.27282060246912,347.0073830796081,223.40481685668163,341.3125582802611,217.70784834959997C335.6177334809141,212.0108798425183,329.90610365771164,210.48494657414216,324.21179046882133,200.49566185305002C318.51747727993103,190.5063771319579,312.84048072535285,172.05374095814986,307.1577460667024,189.8307152997C301.4750114080519,207.60768964125012,295.78653864532913,261.6142744981585,290.10370166458347,278.268108142525C284.4208646838378,294.9219417868915,278.74366348506953,274.22302421871615,273.04965726246456,265.76869750000003C267.3556510398596,257.3143707812839,261.6448397934179,261.1046349120269,255.95083625974644,256.277397394675C250.25683272607503,251.4501598773231,244.57963690517403,238.0054207118762,238.89679185762753,239.27743916209997C233.21394681008104,240.54945761232372,227.52545253588912,256.5382336782181,221.8427474555086,261.18800912324997C216.16004237512809,265.83778456828185,210.4831264885588,259.14855939245126,204.7887030533897,257.7395675565C199.09427961822058,256.3305757205487,193.38234863445152,260.20181722447666,187.6879352419499,259.99492765950004C181.99352184944829,259.7880380945234,176.31662604821403,255.50301746064224,170.63389083983097,252.893047047075C164.9511556314479,250.28307663350773,159.26258101591606,249.34815644025443,153.57984643771204,252.09924794565C147.89711185950802,254.85033945104558,142.2202173186319,261.2874426550901,136.5258020355931,263.82469903500004C130.8313867525543,266.36195541490997,125.11945072735273,264.99936497068535,119.42503422415332,265.679223966C113.73061772095392,266.35908296131464,108.05372073975651,269.08139139616844,102.37098982203442,277.073068545C96.68825890431232,285.0647456938316,90.99969405006553,298.32579155664075,85.31694541991548,301.4978523525C79.63419678976544,304.6699131483592,73.9572643837121,297.7529888772683,68.26290101779655,290.767824945C62.56853765188101,283.78266101273164,56.8567433261033,276.72925741928606,51.162133206356756,272.2353393783C45.467523086610214,267.74142133731397,39.79009717289486,265.8069888487874,34.108088804237845,265.125940217625C28.426080435580833,264.4448915864626,22.73948961198217,265.0172268126642,17.054044402118922,265.55304811244997C11.368599192255676,266.08886941223574,5.684299596127838,266.58817678560536,0,267.08748415897503Z"><title>Disc</title></path><path fill="#ff7f0e" d="M0,267.08748415897503C5.684299596127834,266.5881619710917,11.368599192255669,266.08883978320847,17.054044402118922,265.55304811244997C22.739489611982176,265.0172564416915,28.426080435580836,264.4449952880577,34.108088804237845,265.125940217625C39.79009717289485,265.80688514719225,45.46752308661021,267.7410361599608,51.162133206356756,272.2353393783C56.856743326103306,276.7296425966392,62.56853765188103,283.7840980205493,68.26290101779655,290.767824945C73.95726438371207,297.7515518694506,79.63419678976541,304.66455029444177,85.31694541991548,301.4978523525C90.99969405006556,298.3311544105582,96.68825890431233,285.0847601016834,102.37098982203442,277.073068545C108.0537207397565,269.0613769883166,113.73061772095384,266.2843881838246,119.42503422415332,265.679223966C125.1194507273528,265.0740597481754,130.83138675255432,266.6407201170182,136.5258020355931,263.82469903500004C142.22021731863188,261.0086779529819,147.89711185950802,253.80997542010255,153.57984643771204,251.09924794565C159.26258101591606,248.38852047119747,164.9511556314479,250.16576805517164,170.63389083983097,252.893047047075C176.31662604821403,255.62032603897833,181.99352184944829,259.29763643881074,187.6879352419499,259.99492765950004C193.38234863445152,260.69221888018933,199.09427961822058,258.4094909217357,204.7887030533897,257.7395675565C210.4831264885588,257.0696441912643,216.16004237512803,258.01252541924674,221.8427474555086,261.18800912324997C227.52545253588917,264.3634928272532,233.213946810081,269.77157900727735,238.89679185762753,273.9134384706C244.57963690517406,278.05529793392265,250.25683272607512,280.9309306805441,255.95083625974644,281.377293186675C261.64483979341776,281.82365569280586,267.35565103985954,279.8407479584462,273.04965726246456,281.75045512500003C278.7436634850696,283.6601622915539,284.4208646838378,289.4624843590212,290.10370166458347,290.631312320025C295.78653864532913,291.80014028102886,301.47501140805184,288.3354741355691,307.1577460667024,290.29009192545C312.8404807253529,292.2447097153309,318.51747727993103,299.6186114405523,324.21179046882133,303.32762479994994C329.90610365771164,307.0366381593476,335.6177334809141,307.08076315292163,341.3125582802611,313.3122984333C347.0073830796081,319.54383371367834,352.68540285509965,331.9627792808608,358.36854949110176,336.137078710275C364.05169612710387,340.31137813968917,369.73996962361633,336.24103143133493,375.42259389322066,335.008412267025C381.105218162825,333.77579310271506,386.78219320552085,335.3809014824495,392.47663829533957,333.1717833057C398.1710833851583,330.9626651289505,403.8829985220996,324.9393203957171,409.5774061067794,326.1880176321C415.27181369145916,327.4367148684829,420.9487137238772,335.95745407448203,426.6314505088983,341.289766511325C432.3141872939194,346.622078948168,438.00276083154347,348.7659646158547,443.6854949110172,347.85777229695C449.36822899049093,346.9495799780452,455.0451236118144,342.9893096725488,460.7395393131361,339.4927774431225C466.4339550144578,335.9962452136962,472.1458917957778,332.9634510603401,477.84030712457593,328.8274528794075C483.53472245337406,324.69145469847484,489.21161632964987,319.4522524899655,494.89435152669483,314.462934131325C500.5770867237398,309.4736157726846,506.26566324155397,304.7341812639133,511.94839592881374,303.5323508631C517.6311286160735,302.33052046228676,523.3080174727785,304.6662941694315,529.0024403309327,297.166572078375C534.6968631890869,289.66684998731847,540.4088200486902,272.3316320980605,546.1032081423724,262.32154534250753C551.7975962360546,252.3114585869546,557.4744155638153,249.6265029651069,563.1572525444915,242.69242745652497C568.8400895251676,235.75835194794303,574.5289441587596,224.5751565526267,580.2112969466103,215.63700947738C585.8936497344611,206.69886240213327,591.5695006765706,200.005763646956,597.2633945400075,195.40555645881497C602.9572884034445,190.80534927067393,608.6692251882092,188.29803364956894,614.3641623514474,184.3073116712025C620.0590995146855,180.3165896928361,625.737037056397,174.84246135720815,631.420153562288,175.01447733909C637.103270068179,175.18649332097186,642.791565538249,181.0046536203636,648.4741979644069,169.12192417968C654.1568303905649,157.23919473899642,659.8337997728104,127.65557555823746,665.5282423665258,117.4088410674875C671.2226849602412,107.16210657673754,676.9346007654265,116.25225677599667,682.6290101779656,118.09531014470751C688.3234195905047,119.93836351341835,694.000322610397,114.53432005158092,699.6830545800844,121.77672692788249C705.3657865497719,129.01913380418407,711.0543474692547,148.90799101862467,716.7370989822035,160.430237807775C722.4198504951523,171.95248459692533,728.0967926015667,175.1081209607853,733.7911433843224,179.75987014199248C739.4854941670781,184.41161932319966,745.1972536261752,190.55948132175396,750.8919111957622,196.810429070265C756.5865687653492,203.06137681877604,762.2641244454264,209.4154103172438,767.945955597881,214.3196522440425C773.6277867503356,219.22389417084116,779.3138933751678,222.6783445259706,785,226.13279488110004L785,238.94489607378003C779.3138933751679,236.24942549740445,773.6277867503359,233.55395492102892,767.945955597881,230.15802575576254C762.2641244454262,226.76209659049616,756.586568765349,222.66570883633884,750.8919111957622,218.747736814005C745.1972536261753,214.82976479167118,739.4854941670782,211.09020850116096,733.7911433843224,209.2636187967975C728.0967926015666,207.43702909243402,722.4198504951521,207.52340597421724,716.7370989822035,197.81605979566498C711.0543474692549,188.10871361711273,705.3657865497721,168.60764437822507,699.6830545800844,163.1343734410325C694.0003226103968,157.6611025038399,688.3234195905044,166.2156298683424,682.6290101779656,166.16825755055748C676.9346007654268,166.12088523277257,671.2226849602414,157.4716132327003,665.5282423665258,167.78819452958749C659.8337997728102,178.10477582647468,654.1568303905648,207.38721042032128,648.4741979644069,218.59303519908002C642.7915655382491,229.79885997783876,637.1032700681789,222.92807494150955,631.420153562288,222.38211894174C625.7370370563971,221.83616294197046,620.0590995146854,227.61503597876055,614.3641623514474,231.8548876128525C608.6692251882093,236.09473924694447,602.9572884034447,238.79556947833825,597.2633945400075,243.24528485961503C591.5695006765703,247.6950002408918,585.893649734461,253.89360077205157,580.2112969466103,259.89415903313C574.5289441587597,265.8947172942084,568.8400895251677,271.6972332852056,563.1572525444915,274.078889511425C557.4744155638152,276.46054573764445,551.7975962360543,275.42134219908627,546.1032081423724,280.4708360568575C540.4088200486905,285.5203299146287,534.6968631890869,296.6585211687292,529.0024403309327,300.891801790425C523.3080174727785,305.12508241212083,517.6311286160733,302.4534524014123,511.94839592881374,303.5323508631C506.2656632415542,304.61124932478776,500.57708672373997,309.440676258872,494.89435152669483,314.462934131325C489.2116163296497,319.4851920037781,483.534722453374,324.70028081459986,477.84030712457593,328.8274528794075C472.14589179577786,332.9546249442151,466.4339550144577,335.99388026300824,460.7395393131361,339.4927774431225C455.0451236118145,342.9916746232368,449.3682289904911,346.95021366467216,443.6854949110172,347.85777229695C438.0027608315433,348.7653309292278,432.31418729391936,346.62190915234805,426.6314505088983,341.289766511325C420.94871372387723,335.957623870302,415.2718136914591,327.4367603651356,409.5774061067794,326.1880176321C403.8829985220997,324.9392748990644,398.1710833851583,330.9626529381592,392.47663829533957,333.1717833057C386.78219320552085,335.3809136732408,381.10521816282494,333.77579636922775,375.42259389322066,335.008412267025C369.7399696236164,336.24102816482224,364.0516961271038,340.31137726442967,358.36854949110176,336.137078710275C352.6854028550997,331.9627801561203,347.0073830796081,319.5438339482033,341.3125582802611,313.3122984333C335.6177334809141,307.08076291839666,329.90610365771164,307.03663809650675,324.21179046882133,303.32762479994994C318.51747727993103,299.61861150339314,312.84048072535285,292.244709732169,307.1577460667024,290.29009192545C301.4750114080519,288.335474118731,295.78653864532913,291.800140276517,290.10370166458347,290.631312320025C284.4208646838378,289.462484363533,278.74366348506953,283.66016229276283,273.04965726246456,281.75045512500003C267.3556510398596,279.8407479572372,261.6448397934179,281.8236556924819,255.95083625974644,281.377293186675C250.25683272607503,280.9309306808681,244.57963690517403,278.05529793400956,238.89679185762753,273.9134384706C233.21394681008104,269.77157900719044,227.52545253588912,264.36349282722995,221.8427474555086,261.18800912324997C216.16004237512809,258.01252541927,210.4831264885588,257.0696441912705,204.7887030533897,257.7395675565C199.09427961822058,258.40949092172946,193.38234863445152,260.6922188801877,187.6879352419499,259.99492765950004C181.99352184944829,259.2976364388124,176.31662604821403,255.62032603897873,170.63389083983097,252.893047047075C164.9511556314479,250.16576805517124,159.26258101591606,248.38852047119735,153.57984643771204,251.09924794565C147.89711185950802,253.80997542010266,142.2202173186319,261.0086779529818,136.5258020355931,263.82469903500004C130.8313867525543,266.64072011701825,125.11945072735273,265.0740597481754,119.42503422415332,265.679223966C113.73061772095392,266.2843881838246,108.05372073975651,269.0613769883166,102.37098982203442,277.073068545C96.68825890431232,285.0847601016834,90.99969405006553,298.3311544105582,85.31694541991548,301.4978523525C79.63419678976544,304.66455029444177,73.9572643837121,297.75155186945057,68.26290101779655,290.767824945C62.56853765188101,283.7840980205494,56.8567433261033,276.7296425966392,51.162133206356756,272.2353393783C45.467523086610214,267.7410361599608,39.79009717289486,265.80688514719225,34.108088804237845,265.125940217625C28.426080435580833,264.4449952880577,22.73948961198217,265.0172564416914,17.054044402118922,265.55304811244997C11.368599192255676,266.0888397832085,5.684299596127838,266.5881619710918,0,267.08748415897503Z"><title>Download</title></path><path fill="#2ca02c" d="M0,267.08748415897503C5.684299596127834,266.588161974767,11.368599192255669,266.0888397905589,17.054044402118922,265.55304811244997C22.739489611982176,265.01725643434105,28.426080435580836,264.44499526233113,34.108088804237845,265.125940217625C39.79009717289485,265.80688517291884,45.46752308661021,267.7410362555167,51.162133206356756,272.2353393783C56.856743326103306,276.72964250108333,62.56853765188103,283.7840976640521,68.26290101779655,290.767824945C73.95726438371207,297.7515522259478,79.63419678976541,304.6645516248747,85.31694541991548,301.4978523525C90.99969405006556,298.33115308012526,96.68825890431233,285.08475513644873,102.37098982203442,277.073068545C108.0537207397565,269.0613819535513,113.73061772095384,266.28440671433026,119.42503422415332,265.679223966C125.1194507273528,265.07404121766973,130.83138675255432,266.6406509602302,136.5258020355931,263.82469903500004C142.22021731863188,261.0087471097699,147.89711185950802,253.81023351674907,153.57984643771204,251.09924794565C159.26258101591606,248.38826237455095,164.9511556314479,250.16480482537366,170.63389083983097,252.893047047075C176.31662604821403,255.6212892687763,181.99352184944829,259.30123126135607,187.6879352419499,259.99492765950004C193.38234863445152,260.688624057644,199.09427961822058,258.3960748613524,204.7887030533897,257.7395675565C210.4831264885588,257.08306025164757,216.16004237512803,258.0625948382345,221.8427474555086,261.18800912324997C227.52545253588917,264.31342340826546,233.213946810081,269.58471739170955,238.89679185762753,273.9134384706C244.57963690517406,278.24215954949045,250.25683272607512,281.62830772382733,255.95083625974644,281.377293186675C261.64483979341776,281.12627864952265,267.35565103985954,277.238101400881,273.04965726246456,278.181565875C278.7436634850696,279.12503034911896,284.4208646838378,284.9001365459985,290.10370166458347,285.57587608102506C295.78653864532913,286.2516156160516,301.47501140805184,281.8279884892251,307.1577460667024,283.3379014187C312.8404807253529,284.84781434817495,318.51747727993103,292.2912673339512,324.21179046882133,295.84144453205C329.90610365771164,299.39162173014876,335.6177334809141,299.0485231405698,341.3125582802611,305.01147760009997C347.0073830796081,310.97443205963015,352.68540285509965,323.2434395682695,358.36854949110176,327.47513157387505C364.05169612710387,331.7068235794806,369.73996962361633,327.90120008205247,375.42259389322066,326.65827351747504C381.105218162825,325.4153469528976,386.78219320552085,326.7351173211707,392.47663829533957,324.3407600933C398.1710833851583,321.94640286542926,403.8829985220996,315.83791804141475,409.5774061067794,315.8027774819C415.27181369145916,315.7676369223853,420.9487137238772,321.8058406273699,426.6314505088983,326.93364882117504C432.3141872939194,332.0614570149802,438.00276083154347,336.27886969760556,443.6854949110172,336.81256988359996C449.36822899049093,337.34627006959437,455.0451236118144,334.19625775895776,460.7395393131361,331.0123605180725C466.4339550144578,327.82846327718727,472.1458917957778,324.6106811060533,477.84030712457593,319.29592905109246C483.53472245337406,313.98117699613164,489.21161632964987,306.5694550573438,494.89435152669483,300.694043382625C500.5770867237398,294.8186317079062,506.26566324155397,290.47953029725625,511.94839592881374,287.87772632015003C517.6311286160735,285.2759223430438,523.3080174727785,284.4114157994812,529.0024403309327,283.70786104808C534.6968631890869,283.00430629667886,540.4088200486902,282.4617033374392,546.1032081423724,281.4708360568575C551.7975962360546,280.47996877627577,557.4744155638153,279.0408371743517,563.1572525444915,275.078889511425C568.8400895251676,271.11694184849836,574.5289441587596,264.632178124569,580.2112969466103,260.89415903313C585.8936497344611,257.156139941691,591.5695006765706,256.16486548274224,597.2633945400075,250.96987948661499C602.9572884034445,245.77489349048776,608.6692251882092,236.37619595718206,614.3641623514474,232.8548876128525C620.0590995146855,229.33357926852295,625.737037056397,231.68966011316945,631.420153562288,232.50007519124C637.103270068179,233.31049026931055,642.791565538249,232.57523958080526,648.4741979644069,231.73588382858C654.1568303905649,230.89652807635474,659.8337997728104,229.9530672604095,665.5282423665258,229.63204521058253C671.2226849602412,229.31102316075555,676.9346007654265,229.6124398770468,682.6290101779656,228.41271808067748C688.3234195905047,227.21299628430816,694.000322610397,224.5121359752783,699.6830545800844,224.5813884136775C705.3657865497719,224.6506408520767,711.0543474692547,227.49000603790495,716.7370989822035,229.718864001285C722.4198504951523,231.94772196466505,728.0967926015667,233.56607270559667,733.7911433843224,236.11166727218253C739.4854941670781,238.6572618387684,745.1972536261752,242.1301002310084,750.8919111957622,244.49906943858002C756.5865687653492,246.86803864615163,762.2641244454264,248.1331386690548,767.945955597881,250.32223897970252C773.6277867503356,252.51133929035024,779.3138933751678,255.62443988874261,785,258.737540487135L785,263.3368611984C779.3138933751679,260.3995923864448,773.6277867503359,257.4623235744897,767.945955597881,255.1841250604575C762.2641244454262,252.90592654642532,756.586568765349,251.28679833031612,750.8919111957622,248.810270528235C745.1972536261753,246.3337427261539,739.4854941670782,242.99981533810097,733.7911433843224,240.5462494497075C728.0967926015666,238.092683561314,722.4198504951521,236.51947917258,716.7370989822035,234.28939108522502C711.0543474692549,232.05930299787005,705.3657865497721,229.17233121189426,699.6830545800844,229.1841470763725C694.0003226103968,229.19596294085076,688.3234195905044,232.1065664557832,682.6290101779656,233.38654060151748C676.9346007654268,234.66651474725177,671.2226849602414,234.3158595237878,665.5282423665258,234.8274170438525C659.8337997728102,235.33897456391722,654.1568303905648,236.7127448275106,648.4741979644069,237.71135574462502C642.7915655382491,238.70996666173946,637.1032700681789,239.33341823237504,631.420153562288,239.07041413116497C625.7370370563971,238.8074100299549,620.0590995146854,237.65795025689903,614.3641623514474,240.3391620673975C608.6692251882093,243.02037387789596,602.9572884034447,249.53225727194888,597.2633945400075,255.08610169723C591.5695006765703,260.6399461225111,585.893649734461,265.23575157902036,580.2112969466103,269.96424782403C574.5289441587597,274.69274406903963,568.8400895251677,279.55393110254977,563.1572525444915,283.741553038245C557.4744155638152,287.92917497394023,551.7975962360543,291.44323181182074,546.1032081423724,293.5350189140925C540.4088200486905,295.6268060163643,534.6968631890869,296.2963233830274,529.0024403309327,296.166572078375C523.3080174727785,296.0368207737226,517.6311286160733,295.10780079775475,511.94839592881374,296.37901628975C506.2656632415542,297.6502317817452,500.57708672373997,301.12168274170364,494.89435152669483,307.022939711875C489.2116163296497,312.92419668204633,483.534722453374,321.2552596624307,477.84030712457593,326.55422038925747C472.14589179577786,331.8531811160842,466.4339550144577,334.12003958935327,460.7395393131361,337.2902096730725C455.0451236118145,340.4603797567918,449.3682289904911,344.5338614509611,443.6854949110172,345.48357755809997C438.0027608315433,346.4332936652388,432.31418729391936,344.25924418534726,426.6314505088983,338.885221459175C420.94871372387723,333.51119873300274,415.2718136914591,324.9372027605496,409.5774061067794,323.5417776974C403.8829985220997,322.1463526342504,398.1710833851583,327.92949848040416,392.47663829533957,330.11137364030003C386.78219320552085,332.2932488001959,381.10521816282494,330.87385327383373,375.42259389322066,332.20170236547506C369.7399696236164,333.5295514571164,364.0516961271038,337.60464516676126,358.36854949110176,333.455124762875C352.6854028550997,329.3056043589888,347.0073830796081,316.9314698415715,341.3125582802611,310.6722012776C335.6177334809141,304.41293271362844,329.90610365771164,304.2685301031027,324.21179046882133,300.14369811004997C318.51747727993103,296.01886611699723,312.84048072535285,287.9136047414172,307.1577460667024,286.6631317817C301.4750114080519,285.41265882198275,295.78653864532913,291.01697427812803,290.10370166458347,290.631312320025C284.4208646838378,290.245650361922,278.74366348506953,283.8700109895707,273.04965726246456,281.75045512500003C267.3556510398596,279.6308992604294,261.6448397934179,281.7674269036395,255.95083625974644,281.377293186675C250.25683272607503,280.9871594697105,244.57963690517403,278.07036439257126,238.89679185762753,273.9134384706C233.21394681008104,269.75651254862873,227.52545253588912,264.35945578182555,221.8427474555086,261.18800912324997C216.16004237512809,258.0165624646744,210.4831264885588,257.0707259143265,204.7887030533897,257.7395675565C199.09427961822058,258.4084091986735,193.38234863445152,260.6919290333684,187.6879352419499,259.99492765950004C181.99352184944829,259.29792628563166,176.31662604821403,255.62040370319986,170.63389083983097,252.893047047075C164.9511556314479,250.16569039095012,159.26258101591606,248.38849966113207,153.57984643771204,251.09924794565C147.89711185950802,253.80999623016794,142.2202173186319,261.00868352902205,136.5258020355931,263.82469903500004C130.8313867525543,266.640714540978,125.11945072735273,265.07405825407983,119.42503422415332,265.679223966C113.73061772095392,266.28438967792016,108.05372073975651,269.06137738865834,102.37098982203442,277.073068545C96.68825890431232,285.0847597013417,90.99969405006553,298.3311543032867,85.31694541991548,301.4978523525C79.63419678976544,304.66455040171326,73.9572643837121,297.7515518981946,68.26290101779655,290.767824945C62.56853765188101,283.78409799180537,56.8567433261033,276.72964258893467,51.162133206356756,272.2353393783C45.467523086610214,267.74103616766536,39.79009717289486,265.8068851492666,34.108088804237845,265.125940217625C28.426080435580833,264.4449952859834,22.73948961198217,265.01725644109877,17.054044402118922,265.55304811244997C11.368599192255676,266.0888397838012,5.684299596127838,266.5881619713881,0,267.08748415897503Z"><title>Other</title></path><path fill="#d62728" d="M0,267.08748415897503C5.684299596127834,266.58816196582166,11.368599192255669,266.0888397726683,17.054044402118922,265.55304811244997C22.739489611982176,265.01725645223166,28.426080435580836,264.44499532494825,34.108088804237845,265.125940217625C39.79009717289485,265.8068851103017,45.46752308661021,267.74103602293883,51.162133206356756,272.2353393783C56.856743326103306,276.7296427336612,62.56853765188103,283.7840985317466,68.26290101779655,290.767824945C73.95726438371207,297.7515513582533,79.63419678976541,304.66454838667465,85.31694541991548,301.4978523525C90.99969405006556,298.3311563183253,96.68825890431233,285.08476722155444,102.37098982203442,277.073068545C108.0537207397565,269.0613698684456,113.73061772095384,266.2843616121074,119.42503422415332,265.679223966C125.1194507273528,265.0740863198926,130.83138675255432,266.64081928401606,136.5258020355931,263.82469903500004C142.22021731863188,261.008578785984,147.89711185950802,253.8096053238282,153.57984643771204,251.09924794565C159.26258101591606,248.3888905674718,164.9511556314479,250.16714927327118,170.63389083983097,252.893047047075C176.31662604821403,255.6189448208788,181.99352184944829,259.29248166268695,187.6879352419499,259.99492765950004C193.38234863445152,260.6973736563131,199.09427961822058,258.42872880813127,204.7887030533897,257.7395675565C210.4831264885588,257.0504063048687,216.16004237512803,257.9407286497881,221.8427474555086,261.18800912324997C227.52545253588917,264.4352895967118,233.213946810081,270.0395281987161,238.89679185762753,273.9134384706C244.57963690517406,277.7873487424839,250.25683272607512,279.9309306842474,255.95083625974644,280.377293186675C261.64483979341776,280.82365568910257,267.35565103985954,279.572798752194,273.04965726246456,281.75045512500003C278.7436634850696,283.92811149780607,284.4208646838378,289.53428118032656,290.10370166458347,290.631312320025C295.78653864532913,291.7283434597235,301.47501140805184,288.3162360565996,307.1577460667024,290.29009192545C312.8404807253529,292.26394779430035,318.51747727993103,299.6237669351249,324.21179046882133,303.32762479994994C329.90610365771164,307.031482664775,335.6177334809141,307.07937925360056,341.3125582802611,313.3122984333C347.0073830796081,319.5452176129994,352.68540285509965,331.9631593835726,358.36854949110176,336.137078710275C364.05169612710387,340.31099803697737,369.73996962361633,336.24089491980897,375.42259389322066,335.008412267025C381.105218162825,333.775929614241,386.78219320552085,335.3810674258414,392.47663829533957,333.1717833057C398.1710833851583,330.96249918555856,403.8829985220996,324.93879313367535,409.5774061067794,326.1880176321C415.27181369145916,327.4372421305247,420.9487137238772,335.9593971792571,426.6314505088983,341.289766511325C432.3141872939194,346.6201358433929,438.00276083154347,348.75871945879635,443.6854949110172,347.85777229695C449.36822899049093,346.9568251351036,455.0451236118144,343.01634719600713,460.7395393131361,339.4927774431225C466.4339550144578,335.9692076902379,472.1458917957778,332.8625461235651,477.84030712457593,328.8274528794075C483.53472245337406,324.79235963524985,489.21161632964987,319.8288347136072,494.89435152669483,314.462934131325C500.5770867237398,309.09703354904286,506.26566324155397,303.32875730612136,511.94839592881374,302.5323508631C517.6311286160735,301.7359444200787,523.3080174727785,305.9114077769574,529.0024403309327,305.168733391875C534.6968631890869,304.42605900679257,540.4088200486902,298.7652468797491,546.1032081423724,294.5350189140925C551.7975962360546,290.30479094843594,557.4744155638153,287.50514714416613,563.1572525444915,284.741553038245C568.8400895251676,281.9779589323239,574.5289441587596,279.25041452475136,580.2112969466103,270.96424782403C585.8936497344611,262.67808112330863,591.5695006765706,248.8332921294385,597.2633945400075,244.24528485961503C602.9572884034445,239.65727758979156,608.6692251882092,244.32605204401457,614.3641623514474,241.3391620673975C620.0590995146855,238.35227209078042,625.737037056397,227.70971768332328,631.420153562288,223.38211894174C637.103270068179,219.05452020015673,642.791565538249,221.04187712444718,648.4741979644069,219.59303519908002C654.1568303905649,218.14419327371286,659.8337997728104,213.2591524986879,665.5282423665258,211.38112820358248C671.2226849602412,209.50310390847704,676.9346007654265,210.63209609329098,682.6290101779656,203.4676476441775C688.3234195905047,196.30319919506402,694.000322610397,180.84531011202304,699.6830545800844,164.1343734410325C705.3657865497719,147.42343677004195,711.0543474692547,129.45945251110174,716.7370989822035,121.71060891477501C722.4198504951523,113.96176531844826,728.0967926015667,116.4280623847348,733.7911433843224,115.4537505502925C739.4854941670781,114.4794387158502,745.1972536261752,110.06451798067906,750.8919111957622,107.18972947176499C756.5865687653492,104.31494096285093,762.2641244454264,102.98028468019385,767.945955597881,100.81587493954251C773.6277867503356,98.65146519889117,779.3138933751678,95.65730200024558,785,92.66313880159998L785,225.13279488110004C779.3138933751679,221.81778258404927,773.6277867503359,218.50277028699844,767.945955597881,213.3196522440425C762.2641244454262,208.13653420108653,756.586568765349,201.08531041222543,750.8919111957622,195.810429070265C745.1972536261753,190.53554772830458,739.4854941670782,187.03700883324493,733.7911433843224,178.75987014199248C728.0967926015666,170.48273145074003,722.4198504951521,157.42699296329482,716.7370989822035,159.430237807775C711.0543474692549,161.43348265225518,705.3657865497721,178.4957108286608,699.6830545800844,193.7372193830325C694.0003226103968,208.97872793740422,688.3234195905044,222.39951686974197,682.6290101779656,227.41271808067748C676.9346007654268,232.42591929161298,671.2226849602414,229.03153278114604,665.5282423665258,228.63204521058253C659.8337997728102,228.23255764001902,654.1568303905648,230.82796900935898,648.4741979644069,230.73588382858C642.7915655382491,230.64379864780102,637.1032700681789,227.86421691690308,631.420153562288,231.50007519124C625.7370370563971,235.13593346557693,620.0590995146854,245.18723174514864,614.3641623514474,247.8045598928975C608.6692251882093,250.42188804064634,602.9572884034447,245.6052460565723,597.2633945400075,249.96987948661499C591.5695006765703,254.33451291665767,585.893649734461,267.88042176081717,580.2112969466103,275.96269365598C574.5289441587597,284.0449655511428,568.8400895251677,286.66360049730895,563.1572525444915,289.287834512245C557.4744155638152,291.9120685271811,551.7975962360543,294.5419016108871,546.1032081423724,297.8652360575425C540.4088200486905,301.1885705041979,534.6968631890869,305.2054063138027,529.0024403309327,305.30881014942C523.3080174727785,305.41221398503734,517.6311286160733,301.602185846667,511.94839592881374,302.5323508631C506.2656632415542,303.46251587953304,500.57708672373997,309.1328740507693,494.89435152669483,314.462934131325C489.2116163296497,319.79299421188074,483.534722453374,324.78275620175583,477.84030712457593,328.8274528794075C472.14589179577786,332.8721495570591,466.4339550144577,335.9717809224872,460.7395393131361,339.4927774431225C455.0451236118145,343.01377396375784,449.3682289904911,346.95613563960035,443.6854949110172,347.85777229695C438.0027608315433,348.7594089542996,432.31418729391936,346.6203205931562,426.6314505088983,341.289766511325C420.94871372387723,335.95921242949385,415.2718136914591,327.43719262697476,409.5774061067794,326.1880176321C403.8829985220997,324.93884263722526,398.1710833851583,330.9625124499948,392.47663829533957,333.1717833057C386.78219320552085,335.3810541614052,381.10521816282494,333.77592606004606,375.42259389322066,335.008412267025C369.7399696236164,336.2408984740039,364.0516961271038,340.31099898932104,358.36854949110176,336.137078710275C352.6854028550997,331.9631584312289,347.0073830796081,319.5452173578197,341.3125582802611,313.3122984333C335.6177334809141,307.0793795087803,329.90610365771164,307.03148273315014,324.21179046882133,303.32762479994994C318.51747727993103,299.62376686674975,312.84048072535285,292.2639477759792,307.1577460667024,290.29009192545C301.4750114080519,288.31623607492077,295.78653864532913,291.72834346463253,290.10370166458347,290.631312320025C284.4208646838378,289.5342811754175,278.74366348506953,283.92811149649066,273.04965726246456,281.75045512500003C267.3556510398596,279.5727987535094,261.6448397934179,280.823655689455,255.95083625974644,280.377293186675C250.25683272607503,279.930930683895,244.57963690517403,277.7873487423895,238.89679185762753,273.9134384706C233.21394681008104,270.0395281988105,227.52545253588912,264.4352895967371,221.8427474555086,261.18800912324997C216.16004237512809,257.94072864976283,210.4831264885588,257.0504063048619,204.7887030533897,257.7395675565C199.09427961822058,258.4287288081381,193.38234863445152,260.697373656315,187.6879352419499,259.99492765950004C181.99352184944829,259.2924816626851,176.31662604821403,255.61894482087823,170.63389083983097,252.893047047075C164.9511556314479,250.16714927327175,159.26258101591606,248.38889056747198,153.57984643771204,251.09924794565C147.89711185950802,253.80960532382804,142.2202173186319,261.0085787859839,136.5258020355931,263.82469903500004C130.8313867525543,266.6408192840162,125.11945072735273,265.0740863198926,119.42503422415332,265.679223966C113.73061772095392,266.2843616121074,108.05372073975651,269.0613698684456,102.37098982203442,277.073068545C96.68825890431232,285.08476722155444,90.99969405006553,298.33115631832516,85.31694541991548,301.4978523525C79.63419678976544,304.6645483866748,73.9572643837121,297.75155135825344,68.26290101779655,290.767824945C62.56853765188101,283.7840985317465,56.8567433261033,276.72964273366114,51.162133206356756,272.2353393783C45.467523086610214,267.7410360229389,39.79009717289486,265.8068851103017,34.108088804237845,265.125940217625C28.426080435580833,264.44499532494825,22.73948961198217,265.0172564522316,17.054044402118922,265.55304811244997C11.368599192255676,266.08883977266834,5.684299596127838,266.58816196582166,0,267.08748415897503Z"><title>Streaming</title></path><path fill="#8c564b" d="M0,91.91251584102503C5.684299596127834,92.41188388562125,11.368599192255669,92.91125193021752,17.054044402118922,93.44695188755001C22.739489611982176,93.98265184488251,28.426080435580836,94.55468371495125,34.108088804237845,93.87405978237504C39.79009717289485,93.19343584979883,45.46752308661021,91.26015611457768,51.162133206356756,86.7646606217C56.856743326103306,82.26916512882232,62.56853765188103,75.21145387828817,68.26290101779655,68.23217505500001C73.95726438371207,61.25289623171186,79.63419678976541,54.35204983566973,85.31694541991548,57.50214764750003C90.99969405006556,60.65224545933033,96.68825890431233,73.85328747903306,102.37098982203442,81.92693145499999C108.0537207397565,90.00057543096692,113.73061772095384,92.94682136319803,119.42503422415332,93.32077603399999C125.1194507273528,93.69473070480196,130.83138675255432,91.4963941141748,136.5258020355931,95.175300965C142.22021731863188,98.8542078158252,147.89711185950802,108.41035810810278,153.57984643771204,105.90075205435C159.26258101591606,103.3911460005972,164.9511556314479,88.81578360081403,170.63389083983097,105.106952952925C176.31662604821403,121.39812230503597,181.99352184944829,168.555823409041,187.6879352419499,186.9926645855C193.38234863445152,205.42950576195898,199.09427961822058,195.14548701087196,204.7887030533897,187.2060907385C210.4831264885588,179.26669446612803,216.16004237512803,173.67192067247103,221.8427474555086,185.26837840175C227.52545253588917,196.86483613102897,233.213946810081,225.6525253832438,238.89679185762753,240.27743916209997C244.57963690517406,254.90235294095612,250.25683272607512,255.36449124645344,255.95083625974644,257.277397394675C261.64483979341776,259.1903035428966,267.35565103985954,262.5539775338423,273.04965726246456,266.76869750000003C278.7436634850696,270.98341746615773,284.4208646838378,276.0491834075273,290.10370166458347,279.268108142525C295.78653864532913,282.4870328775227,301.47501140805184,283.85911640614876,307.1577460667024,287.6631317817C312.8404807253529,291.4671471572512,318.51747727993103,297.7030943797276,324.21179046882133,301.14369811004997C329.90610365771164,304.58430184037235,335.6177334809141,305.229562078541,341.3125582802611,311.6722012776C347.0073830796081,318.11484047665897,352.68540285509965,330.3548586366081,358.36854949110176,334.455124762875C364.05169612710387,338.5553908891419,369.73996962361633,334.51590498172635,375.42259389322066,333.20170236547506C381.105218162825,331.88749974922376,386.78219320552085,333.2985804241366,392.47663829533957,331.11137364030003C398.1710833851583,328.92416685646344,403.8829985220996,323.1386726138775,409.5774061067794,324.5417776974C415.27181369145916,325.9448827809225,420.9487137238772,334.53658719055346,426.6314505088983,339.885221459175C432.3141872939194,345.23385572779654,438.00276083154347,347.3394198554084,443.6854949110172,346.48357755809997C449.36822899049093,345.62773526079155,455.0451236118144,341.8104865385626,460.7395393131361,338.2902096730725C466.4339550144578,334.76993280758245,472.1458917957778,331.5466277988313,477.84030712457593,327.55422038925747C483.53472245337406,323.5618129796836,489.21161632964987,318.80030316928713,494.89435152669483,313.49516082937504C500.5770867237398,308.19001848946294,506.26566324155397,302.3412436200352,511.94839592881374,300.63199360225C517.6311286160735,298.92274358446485,523.3080174727785,301.35301841832216,529.0024403309327,301.891801790425C534.6968631890869,302.43058516252785,540.4088200486902,301.0778770728763,546.1032081423724,298.8652360575425C551.7975962360546,296.65259504220876,557.4744155638153,293.58002110119287,563.1572525444915,290.287834512245C568.8400895251676,286.99564792329716,574.5289441587596,283.4838486864173,580.2112969466103,276.96269365598C585.8936497344611,270.4415386255427,591.5695006765706,260.9110278015479,597.2633945400075,256.08610169723C602.9572884034445,251.26117559291205,608.6692251882092,251.1418342082709,614.3641623514474,248.8045598928975C620.0590995146855,246.46728557752408,625.737037056397,241.91207833141857,631.420153562288,240.07041413116497C637.103270068179,238.22874993091136,642.791565538249,239.10062877650967,648.4741979644069,238.71135574462502C654.1568303905649,238.32208271274038,659.8337997728104,236.6716578033729,665.5282423665258,235.8274170438525C671.2226849602412,234.9831762843321,676.9346007654265,234.94511967465888,682.6290101779656,234.38654060151748C688.3234195905047,233.82796152837608,694.000322610397,232.7488599917666,699.6830545800844,230.1841470763725C705.3657865497719,227.61943416097841,711.0543474692547,223.56910986679978,716.7370989822035,223.23181070399002C722.4198504951523,222.89451154118026,728.0967926015667,226.27023750973916,733.7911433843224,229.3545742362575C739.4854941670781,232.43891096277582,745.1972536261752,235.2318584472537,750.8919111957622,237.32579311568003C756.5865687653492,239.41972778410636,762.2641244454264,240.81464963648108,767.945955597881,242.8391432294975C773.6277867503356,244.8636368225139,779.3138933751678,247.51770215617194,785,250.17176748983L785,257.737540487135C779.3138933751679,254.64758953166984,773.6277867503359,251.55763857620465,767.945955597881,249.32223897970252C762.2641244454262,247.08683938320038,756.586568765349,245.70599114566147,750.8919111957622,243.49906943858002C745.1972536261753,241.29214773149857,739.4854941670782,238.2591525548745,733.7911433843224,235.11166727218253C728.0967926015666,231.96418198949056,722.4198504951521,228.70220660073073,716.7370989822035,228.718864001285C711.0543474692549,228.73552140183926,705.3657865497721,232.03081159170756,699.6830545800844,234.2232730721175C694.0003226103968,236.41573455252745,688.3234195905044,237.50536732347916,682.6290101779656,237.9046898552925C676.9346007654268,238.30401238710584,671.2226849602414,238.01302467978087,665.5282423665258,238.59115893251249C659.8337997728102,239.1692931852441,654.1568303905648,240.61654939803236,648.4741979644069,240.825360075405C642.7915655382491,241.03417075277764,637.1032700681789,240.00453589473472,631.420153562288,241.674308433435C625.7370370563971,243.34408097213526,620.0590995146854,247.71326090757873,614.3641623514474,249.9896742858225C608.6692251882093,252.26608766406628,602.9572884034447,252.44973448511035,597.2633945400075,257.14766311538C591.5695006765703,261.84559174564964,585.893649734461,271.0578021851448,580.2112969466103,277.460318352065C574.5289441587597,283.86283451898515,568.8400895251677,287.4556564133303,563.1572525444915,290.774800226495C557.4744155638152,294.09394403965973,551.7975962360543,297.1394097716441,546.1032081423724,299.40325462894253C540.4088200486905,301.66709948624094,534.6968631890869,303.14932346885314,529.0024403309327,302.687600181175C523.3080174727785,302.2258768934969,517.6311286160733,299.8202063355282,511.94839592881374,301.5323508631C506.2656632415542,303.24449539067183,500.57708672373997,309.07445500378424,494.89435152669483,314.462934131325C489.2116163296497,319.8514132588658,483.534722453374,324.79841190083494,477.84030712457593,328.8274528794075C472.14589179577786,332.85649385798,466.4339550144577,335.96757717315586,460.7395393131361,339.4927774431225C455.0451236118145,343.0179777130892,449.3682289904911,346.9572949378465,443.6854949110172,347.85777229695C438.0027608315433,348.75824965605347,432.31418729391936,346.61988714950286,426.6314505088983,341.289766511325C420.94871372387723,335.95964587314717,415.2718136914591,327.437767103342,409.5774061067794,326.1880176321C403.8829985220997,324.938268160858,398.1710833851583,330.96064798817883,392.47663829533957,333.1717833057C386.78219320552085,335.38291862322114,381.10521816282494,333.78280943094256,375.42259389322066,335.008412267025C369.7399696236164,336.2340151031074,364.0516961271038,340.28532996755075,358.36854949110176,336.137078710275C352.6854028550997,331.9888274529992,347.0073830796081,319.6410100740045,341.3125582802611,313.3122984333C335.6177334809141,306.9835867925955,329.90610365771164,306.6739808901811,324.21179046882133,303.32762479994994C318.51747727993103,299.9812687097188,312.84048072535285,293.5981624316706,307.1577460667024,290.29009192545C301.4750114080519,286.9820214192294,295.78653864532913,286.7489866848363,290.10370166458347,284.57587608102506C284.4208646838378,282.4027654772138,278.74366348506953,278.2895790039844,273.04965726246456,277.181565875C267.3556510398596,276.0735527460156,261.6448397934179,277.970712961276,255.95083625974644,280.377293186675C250.25683272607503,282.783873412074,244.57963690517403,285.6998736476117,238.89679185762753,273.9134384706C233.21394681008104,262.1270032935883,227.52545253588912,235.63813270402724,221.8427474555086,227.64422594825C216.16004237512809,219.65031919247278,210.4831264885588,230.1513762704792,204.7887030533897,242.857820135C199.09427961822058,255.5642639995208,193.38234863445152,270.47609465055575,187.6879352419499,255.1822181165C181.99352184944829,239.8883415824442,176.31662604821403,194.38875786329743,170.63389083983097,180.50651667092504C164.9511556314479,166.62427547855265,159.26258101591606,184.35937681295462,153.57984643771204,193.64938755385C147.89711185950802,202.9393982947454,142.2202173186319,203.78431844213415,136.5258020355931,204.7829662625C130.8313867525543,205.78161408286584,125.11945072735273,206.93398957620857,119.42503422415332,207.34255697600003C113.73061772095392,207.75112437579148,108.05372073975651,207.41588368203176,102.37098982203442,209.25890753000002C96.68825890431232,211.10193137796827,90.99969405006553,215.12321976766447,85.31694541991548,218.28373703749998C79.63419678976544,221.44425430733548,73.9572643837121,223.7440004573102,68.26290101779655,222.65153430500004C62.56853765188101,221.5590681526899,56.8567433261033,217.0743896980949,51.162133206356756,215.36372610169997C45.467523086610214,213.65306250530503,39.79009717289486,214.71641376711003,34.108088804237845,214.80029598237502C28.426080435580833,214.88417819764,22.73948961198217,213.988591366365,17.054044402118922,214.01541537755C11.368599192255676,214.042239388735,5.684299596127838,214.99147424237998,0,215.94070909602496Z"><title>Vinyl</title></path></g><g id="xAxis" transform="translate(0,360)" fill="none" font-size="10" font-family="sans-serif" text-anchor="middle"><path class="domain" stroke="currentColor" d="M0,0H785"/><g class="tick" opacity="1" transform="translate(34.108088804237845,0)"><line stroke="currentColor" y2="6"/><text fill="currentColor" y="9" dy="0.71em">1975</text></g><g class="tick" opacity="1" transform="translate(119.42503422415332,0)"><line stroke="currentColor" y2="6"/><text fill="currentColor" y="9" dy="0.71em">1980</text></g><g class="tick" opacity="1" transform="translate(204.7887030533897,0)"><line stroke="currentColor" y2="6"/><text fill="currentColor" y="9" dy="0.71em">1985</text></g><g class="tick" opacity="1" transform="translate(290.10370166458347,0)"><line stroke="currentColor" y2="6"/><text fill="currentColor" y="9" dy="0.71em">1990</text></g><g class="tick" opacity="1" transform="translate(375.42259389322066,0)"><line stroke="currentColor" y2="6"/><text fill="currentColor" y="9" dy="0.71em">1995</text></g><g class="tick" opacity="1" transform="translate(460.7395393131361,0)"><line stroke="currentColor" y2="6"/><text fill="currentColor" y="9" dy="0.71em">2000</text></g><g class="tick" opacity="1" transform="translate(546.1032081423724,0)"><line stroke="currentColor" y2="6"/><text fill="currentColor" y="9" dy="0.71em">2005</text></g><g class="tick" opacity="1" transform="translate(631.420153562288,0)"><line stroke="currentColor" y2="6"/><text fill="currentColor" y="9" dy="0.71em">2010</text></g><g class="tick" opacity="1" transform="translate(716.7370989822035,0)"><line stroke="currentColor" y2="6"/><text fill="currentColor" y="9" dy="0.71em">2015</text></g></g><text y="356" x="785" text-anchor="end" style="font-family: Arial, sans-serif; font-size: 12px; fill: rgb(123, 123, 123); font-weight: bold;">Year</text><text x="4" text-anchor="start" dominant-baseline="hanging" style="font-family: Arial, sans-serif; font-size: 12px; fill: rgb(123, 123, 123); font-weight: bold;">Revenues in millions (Adjusted for inflation)</text><g id="labels"><text x="255.95083625974644" y="131.417740003575" text-anchor="middle" alignment-baseline="middle" style="font-family: Arial, sans-serif; font-size: 10px; fill: black; font-weight: bold;">Tape</text><text x="443.6854949110172" y="159.2068252398" text-anchor="middle" alignment-baseline="middle" style="font-family: Arial, sans-serif; font-size: 10px; fill: black; font-weight: bold;">Disc</text><text x="665.5282423665258" y="142.5985177985375" text-anchor="middle" alignment-baseline="middle" style="font-family: Arial, sans-serif; font-size: 10px; fill: black; font-weight: bold;">Download</text><text x="529.0024403309327" y="289.9372165632275" text-anchor="middle" alignment-baseline="middle" style="font-family: Arial, sans-serif; font-size: 10px; fill: black; font-weight: bold;">Other</text><text x="785" y="158.89796684135" text-anchor="end" alignment-baseline="middle" style="font-family: Arial, sans-serif; font-size: 10px; fill: black; font-weight: bold;">Streaming</text><text x="85.31694541991548" y="137.8929423425" text-anchor="middle" alignment-baseline="middle" style="font-family: Arial, sans-serif; font-size: 10px; fill: black; font-weight: bold;">Vinyl</text></g></g><text x="4" y="4" style="font-family: Arial, sans-serif; font-size: 12px; fill: black; font-weight: bold; dominant-baseline: hanging;"/></g></g></svg>