<svg xmlns="http://www.w3.org/2000/svg" width="805" height="400"><rect width="805" height="400" x="0" y="0" fill="#FFFFFF" id="background"/><g id="viz"><g transform="translate(0,0)"><g transform="translate(10,20)"><g><path fill="#9467bd" d="M0,216.94070909602496L2.842340733686487,216.61982680961248C5.684681467372974,216.2989445232,11.369362934745949,215.65717995037497,17.054044402118922,215.4671110981C22.738725869491898,215.277042245825,28.42340733686487,215.5386691141,34.108088804237845,215.763387568125C39.79277027161081,215.98810602215,45.47745173898378,216.175916061925,51.16992044124357,217.4844557823625C56.86238914350336,218.79299550279998,62.56264508064995,221.22226490390003,68.25511378290975,221.70893339320003C73.94758248516952,222.19560188250003,79.63226395254252,220.73966946,85.31694541991548,218.5075649975C91.00162688728847,216.27546053499998,96.68630835466143,213.2671840325,102.37098982203442,211.44365402225C108.05567128940739,209.62012401200002,113.74035275678035,208.98134049400002,119.43282145904014,208.23535028275C125.12529016129992,207.48936007150004,130.8255460984465,206.63616316700003,136.5180148007063,204.520634929975C142.21048350296607,202.40510669295,147.89516497033904,199.0272471234,153.57984643771204,195.25821286416252C159.26452790508503,191.489178604925,164.949209372458,187.328969656,170.63389083983097,183.38862763277498C176.31857230720394,179.44828560955,182.00325377457693,175.727810512025,187.69572247683672,173.8320019377625C193.38819117909648,171.93619336350002,199.0884471162431,171.86505131250001,204.78091581850288,172.152432343125C210.47338452076266,172.43981337374998,216.15806598813563,173.08571748600002,221.8427474555086,173.37315843039997C227.52742892288157,173.6605993748,233.21211039025457,173.58957715135003,238.8967918576275,172.93217801933756C244.5814733250005,172.27477888732503,250.26615479237344,171.03100284675,255.95829902651295,170.8211036296C261.6504432606525,170.61120441245,267.3500502615585,171.435182018725,273.042194495698,173.33413938995C278.73433872983753,175.233096761175,284.4190201972105,178.20703389735002,290.10370166458347,182.62765826092502C295.78838313195644,187.0482826245,301.4730645993294,192.915594215475,307.1577460667024,197.71573939671248C312.84242753407534,202.51588457795,318.5271090014483,206.24886334944995,324.2195777037081,211.11982391217498C329.91204640596794,215.99078447489998,335.61230234311455,221.99972682885002,341.30509551349456,229.00371018598753C346.99788868387463,236.00769354312501,352.6832190874882,244.00671790345004,358.36822502298145,251.1880528019875C364.0532309584748,258.369387700525,369.7379124258477,264.733033137275,375.42259389322066,269.7282153720125C381.10727536059363,274.72339760675004,386.79195682796654,278.35011663947506,392.4844255302264,280.9366930339875C398.1768942324862,283.52326942850004,403.8771501696328,285.06970318480006,409.56961887189254,289.0174401997375C415.2620875741524,292.965177214675,420.94676904152533,299.31421748825,426.6314505088983,305.26429886305C432.31613197627127,311.21438023785,438.0008134436442,316.765502713875,443.6854949110172,320.06320279730875C449.37017637839017,323.3609028807425,455.05485784576314,324.40518057158505,460.74732654802284,324.17883131208623C466.4397952502827,323.9524820525875,472.14005118742926,322.45550584274747,477.8325198896891,319.87904830131373C483.5249885919489,317.30259075987993,489.2096700593218,313.64665188685245,494.89435152669483,310.3667925398012C500.5790329940678,307.08693319275,506.26371446144077,304.18315337167496,511.9483959288137,303.3226473591575C517.6330773961868,302.46214134664,523.3177588635598,303.64490914268,529.0102275658195,303.4988893224037C534.7026962680793,303.35286950212753,540.4029522052259,301.878062065535,546.0954209074856,299.70258261349755C551.7878896097454,297.52710316146005,557.4725710771185,294.6509516939775,563.1572525444914,290.9937956478313C568.8419340118644,287.336639601685,574.5266154792374,282.89847897687497,580.21097247849,277.2939561250225C585.8953294777427,271.68943327317,591.5793620088751,264.918548194275,597.2715062430146,260.1734408499013C602.9636504771541,255.4283335055275,608.6639064143008,252.709003895675,614.3566995846808,249.96344478201752C620.0494927550609,247.21788566836003,625.7348231586744,244.4460970508975,631.4198290941677,242.91871134916127C637.104835029661,241.391325647425,642.789516497034,241.10834286141503,648.4741979644069,240.59448461126127C654.1588794317798,240.0806263611075,659.8435608991527,239.33589264680998,665.5360296014126,238.84911427679125C671.2284983036724,238.3623359067725,676.928754240819,238.1335128810325,682.6212229430788,237.4055319043C688.3136916453386,236.6775509275675,693.9983731127114,235.4504119998425,699.6830545800844,234.84786220483124C705.3677360474575,234.24531240982,711.0524175148306,234.26735174752253,716.7370989822035,235.3211811437875C722.4217804495765,236.3750105400525,728.1064619169493,238.46062999488,733.7989306192093,240.88077656871496C739.491399321469,243.30092314255,745.1916552586157,246.0555968353925,750.8841239608754,248.4952427705175C756.5765926631351,250.9348887056425,762.261274130508,253.05950688304998,767.945955597881,255.48060532807753C773.6306370652541,257.901703773105,779.315318532627,260.61928248575254,782.1576592663135,261.9780718420763L785,263.3368611984L785,263.3368611984L782.1576592663135,261.9780718420763C779.315318532627,260.61928248575254,773.6306370652541,257.901703773105,767.945955597881,255.48060532807747C762.261274130508,253.05950688304998,756.5765926631351,250.9348887056425,750.8841239608754,248.4952427705175C745.1916552586157,246.0555968353925,739.491399321469,243.30092314255,733.7989306192093,240.88077656871496C728.1064619169493,238.46062999488,722.4217804495765,236.3750105400525,716.7370989822035,235.3211811437875C711.0524175148306,234.26735174752253,705.3677360474575,234.24531240982,699.6830545800844,234.84786220483124C693.9983731127114,235.4504119998425,688.3136916453386,236.6775509275675,682.6212229430788,237.4055319043C676.928754240819,238.1335128810325,671.2284983036724,238.3623359067725,665.5360296014126,238.84911427679125C659.8435608991527,239.33589264680998,654.1588794317798,240.0806263611075,648.4741979644069,240.59448461126124C642.789516497034,241.10834286141503,637.104835029661,241.391325647425,631.4198290941677,242.9187113491612C625.7348231586744,244.4460970508975,620.0494927550609,247.21788566836003,614.3566995846808,249.96611649699503C608.6639064143008,252.71434732563,602.9636504771541,255.4390203654375,597.2715062430146,260.1933772394787C591.5793620088751,264.94773411351997,585.8953294777427,271.731774821795,580.21097247849,277.34535625256996C574.5266154792374,282.958937683345,568.8419340118644,287.40205983662,563.1572525444914,291.0928376626237C557.4725710771185,294.7836154886275,551.7878896097454,297.72204898736004,546.0954209074856,299.96598701394754C540.4029522052259,302.209925040535,534.7026962680793,303.7593675949775,529.0102275658195,304.2380123244788C523.3177588635598,304.71665705398004,517.6330773961868,304.12450395854006,511.9483959288137,305.6501912888575C506.26371446144077,307.175878619175,500.5790329940678,310.81940637525,494.89435152669483,315.03525671130126C489.2096700593218,319.2511070473525,483.5249885919489,324.03927996338,477.8325198896891,328.21092051534623C472.14005118742926,332.3825610673125,466.4397952502827,335.9376692552175,460.74732654802295,339.10938915814125C455.05485784576314,342.281109061065,449.37017637839017,345.0694406790075,443.6854949110172,345.36893885704126C438.0008134436442,345.668437035075,432.31613197627127,343.4791017732,426.6314505088983,339.86747599572504C420.94676904152533,336.25585021825003,415.2620875741524,331.22193392517505,409.56961887189254,329.8689367242375C403.8771501696328,328.5159395233,398.1768942324862,330.8438614145,392.4844255302264,332.3139271869875C386.79195682796654,333.783992959475,381.10727536059363,334.39620261324995,375.42259389322066,334.8904185140125C369.7379124258477,335.384634414775,364.0532309584748,335.760856562525,358.36822502298145,332.1448375902375C352.6832190874882,328.52881861795,346.99788868387463,320.920558525625,341.30509551349456,315.45231620723746C335.61230234311455,309.98407388885,329.91204640596794,306.65584934439994,324.2195777037081,302.818814926425C318.5271090014483,298.98178050844996,312.84242753407534,294.63593621695,307.1577460667024,292.5198841369625C301.4730645993294,290.403832056975,295.78838313195644,290.5175721885,290.10370166458347,289.09429938842504C284.4190201972105,287.67102658835,278.73433872983753,284.71074085667505,273.042194495698,283.16840433445003C267.3500502615585,281.626067812225,261.6504432606525,281.50168049945,255.95829902651295,280.19551105705C250.26615479237344,278.88934161465,244.5814733250005,276.401390042625,238.8967918576275,273.0365093653875C233.21211039025457,269.67162868814995,227.52742892288157,265.42981890569996,221.84274745550863,262.73417375335C216.15806598813563,260.038528601,210.47338452076266,258.88904807874997,204.78091581850288,258.690201168125C199.0884471162431,258.4913542575,193.38819117909648,259.2431409585,187.69572247683672,258.4353875402625C182.00325377457693,257.62763412202503,176.31857230720394,255.26034058455002,170.63389083983097,253.94439396557496C164.949209372458,252.62844734659998,159.26452790508503,252.363847646125,153.57984643771204,254.18578964411253C147.89516497033904,256.0077316421,142.21048350296607,259.91621533855005,136.5180148007063,262.17954467527505C130.8255460984465,264.442874012,125.12529016129992,265.061048989,119.43282145904014,267.269110574C113.74035275678035,269.477172159,108.05567128940739,273.275120352,102.3709898220344,279.24489174975C96.68630835466143,285.2146631475,91.00162688728847,293.35625775,85.31694541991548,295.63871715C79.63226395254252,297.92117655,73.94758248516952,294.3445007475,68.25511378290975,289.4674152518C62.56264508064995,284.59032975609995,56.86238914350336,278.4128345672,51.16992044124357,274.1391871126375C45.47745173898378,269.865539658075,39.79277027161081,267.49573993785,34.108088804237845,266.382024726875C28.42340733686487,265.2683095159,22.738725869491898,265.410678814175,17.054044402118922,265.73760280439996C11.369362934745949,266.064526794625,5.684681467372974,266.5760054768,2.842340733686487,266.8317448178875L0,267.08748415897503Z"><title>Tape</title></path><path fill="#1f77b4" d="M0,216.94070909602496L2.842340733686487,216.61982680961248C5.684681467372974,216.2989445232,11.369362934745949,215.65717995037497,17.054044402118922,215.4671110981C22.738725869491898,215.277042245825,28.42340733686487,215.5386691141,34.108088804237845,215.763387568125C39.79277027161081,215.98810602215,45.47745173898378,216.175916061925,51.16992044124357,217.4844557823625C56.86238914350336,218.79299550279998,62.56264508064995,221.22226490390003,68.25511378290975,221.70893339320003C73.94758248516952,222.19560188250003,79.63226395254252,220.73966946,85.31694541991548,218.5075649975C91.00162688728847,216.27546053499998,96.68630835466143,213.2671840325,102.37098982203442,211.44365402225C108.05567128940739,209.62012401200002,113.74035275678035,208.98134049400002,119.43282145904014,208.23535028275C125.12529016129992,207.48936007150004,130.8255460984465,206.63616316700003,136.5180148007063,204.520634929975C142.21048350296607,202.40510669295,147.89516497033904,199.0272471234,153.57984643771204,195.14783885813753C159.26452790508503,191.268430592875,164.949209372458,186.88747363189998,170.63389083983097,182.311680018175C176.31857230720394,177.73588640444999,182.00325377457693,172.965256137975,187.69572247683672,168.86619699948747C193.38819117909648,164.767137861,199.0884471162431,161.3396498505,204.78091581850288,156.838518609125C210.47338452076266,152.33738736775,216.15806598813563,146.76261289549998,221.8427474555086,140.39767939515C227.52742892288157,134.0327458948,233.21211039025457,126.87765336635,238.8967918576275,120.30011406336251C244.5814733250005,113.72257476037502,250.26615479237344,107.72258868285,255.95829902651295,103.1407122932C261.6504432606525,98.55883590354999,267.3500502615585,95.395069201775,273.042194495698,91.72995074379999C278.73433872983753,88.064832285825,284.4190201972105,83.89836207165001,290.10370166458347,81.13682808520002C295.78838313195644,78.37529409875002,301.4730645993294,77.01869634002502,307.1577460667024,74.2564736084375C312.84242753407534,71.49425087684999,318.5271090014483,67.32640317239998,324.2195777037081,63.71414047549997C329.91204640596794,60.10187777859997,335.61230234311455,57.04520008924998,341.30509551349456,51.772918915612486C346.99788868387463,46.500637741975,352.6832190874882,39.01275308405001,358.36822502298145,35.40495376448751C364.0532309584748,31.797154444925017,369.7379124258477,32.069440463725016,375.42259389322066,32.59183571048751C381.10727536059363,33.11423095725001,386.79195682796654,33.886735431975,392.4844255302264,35.695984771237484C398.1768942324862,37.50523411049998,403.8771501696328,40.351228314299966,409.56961887189254,39.91908019298747C415.2620875741524,39.48693207167497,420.94676904152533,35.77664162524997,426.6314505088983,32.275009558299985C432.31613197627127,28.773377491350004,438.0008134436442,25.48040380387502,443.6854949110172,24.80061852105878C449.37017637839017,24.12083323824253,455.05485784576314,26.054236360085017,460.74732654802284,28.973676498836255C466.4397952502827,31.893116637587493,472.14005118742926,35.79859379324748,477.8325198896891,39.939609796238734C483.5249885919489,44.080625799229985,489.2096700593218,48.45718064955252,494.89435152669483,52.818051552626265C500.5790329940678,57.17892245570001,506.26371446144077,61.52410941152499,511.9483959288137,64.68698778508248C517.6330773961868,67.84986615863998,523.3177588635598,69.83043594992999,529.0102275658195,74.42242435542875C534.7026962680793,79.01441276092751,540.4029522052259,86.21781978063503,546.0954209074856,93.12218395377754C551.7878896097454,100.02654812692002,557.4725710771185,106.63186945349749,563.1572525444914,114.44624721087622C568.8419340118644,122.26062496825496,574.5266154792374,131.28405915643498,580.21097247849,139.1742629016425C585.8953294777427,147.06446664684998,591.5793620088751,153.82143994908503,597.2715062430146,159.21897244644876C602.9636504771541,164.61650494381252,608.6639064143008,168.654596636305,614.3566995846808,172.22244820457C620.0494927550609,175.79029977283497,625.7348231586744,178.88791121687245,631.4198290941677,181.4188091321262C637.104835029661,183.94970704737997,642.789516497034,185.91389143384995,648.4741979644069,188.41600853345122C654.1588794317798,190.91812563305248,659.8435608991527,193.95817544578497,665.5360296014126,196.41271276934376C671.2284983036724,198.86725009290248,676.928754240819,200.73627492728747,682.6212229430788,202.13308805778001C688.3136916453386,203.52990118827248,693.9983731127114,204.4545026148725,699.6830545800844,205.83255935074374C705.3677360474575,207.21061608661498,711.0524175148306,209.0421281317575,716.7370989822035,211.88815979321998C722.4217804495765,214.73419145468247,728.1064619169493,218.594742732465,733.7989306192093,222.15450507407502C739.491399321469,225.714267415685,745.1916552586157,228.97324082112252,750.8841239608754,232.647859750535C756.5765926631351,236.3224786799475,762.261274130508,240.41274313333497,767.945955597881,244.05903905929995C773.6306370652541,247.70533498526495,779.315318532627,250.9076623838075,782.1576592663135,252.5088260830787L785,254.10998978234997L785,263.3368611984L782.1576592663135,261.9780718420763C779.315318532627,260.61928248575254,773.6306370652541,257.901703773105,767.945955597881,255.48060532807747C762.261274130508,253.05950688304998,756.5765926631351,250.9348887056425,750.8841239608754,248.4952427705175C745.1916552586157,246.0555968353925,739.491399321469,243.30092314255,733.7989306192093,240.88077656871496C728.1064619169493,238.46062999488,722.4217804495765,236.3750105400525,716.7370989822035,235.3211811437875C711.0524175148306,234.26735174752253,705.3677360474575,234.24531240982,699.6830545800844,234.84786220483124C693.9983731127114,235.4504119998425,688.3136916453386,236.6775509275675,682.6212229430788,237.4055319043C676.928754240819,238.1335128810325,671.2284983036724,238.3623359067725,665.5360296014126,238.84911427679125C659.8435608991527,239.33589264680998,654.1588794317798,240.0806263611075,648.4741979644069,240.59448461126124C642.789516497034,241.10834286141503,637.104835029661,241.391325647425,631.4198290941677,242.9187113491612C625.7348231586744,244.4460970508975,620.0494927550609,247.21788566836003,614.3566995846808,249.96344478201752C608.6639064143008,252.709003895675,602.9636504771541,255.4283335055275,597.2715062430146,260.1734408499012C591.5793620088751,264.918548194275,585.8953294777427,271.68943327317,580.21097247849,277.2939561250225C574.5266154792374,282.89847897687497,568.8419340118644,287.336639601685,563.1572525444914,290.99379564783123C557.4725710771185,294.6509516939775,551.7878896097454,297.52710316146005,546.0954209074856,299.70258261349755C540.4029522052259,301.878062065535,534.7026962680793,303.35286950212753,529.0102275658195,303.4988893224037C523.3177588635598,303.64490914268,517.6330773961868,302.46214134664,511.9483959288137,303.3226473591575C506.26371446144077,304.18315337167496,500.5790329940678,307.08693319275,494.89435152669483,310.3667925398012C489.2096700593218,313.64665188685245,483.5249885919489,317.30259075987993,477.8325198896891,319.87904830131373C472.14005118742926,322.45550584274747,466.4397952502827,323.9524820525875,460.74732654802295,324.1788313120863C455.05485784576314,324.40518057158505,449.37017637839017,323.3609028807425,443.6854949110172,320.06320279730875C438.0008134436442,316.765502713875,432.31613197627127,311.21438023785,426.6314505088983,305.26429886305C420.94676904152533,299.31421748825,415.2620875741524,292.965177214675,409.56961887189254,289.0174401997375C403.8771501696328,285.06970318480006,398.1768942324862,283.52326942850004,392.4844255302264,280.9366930339875C386.79195682796654,278.35011663947506,381.10727536059363,274.72339760675004,375.42259389322066,269.7282153720125C369.7379124258477,264.733033137275,364.0532309584748,258.369387700525,358.36822502298145,251.18805280198754C352.6832190874882,244.00671790345004,346.99788868387463,236.00769354312501,341.30509551349456,229.00371018598753C335.61230234311455,221.99972682885002,329.91204640596794,215.99078447489998,324.2195777037081,211.11982391217498C318.5271090014483,206.24886334944995,312.84242753407534,202.51588457795,307.1577460667024,197.71573939671248C301.4730645993294,192.915594215475,295.78838313195644,187.0482826245,290.10370166458347,182.62765826092502C284.4190201972105,178.20703389735002,278.73433872983753,175.233096761175,273.042194495698,173.33413938995C267.3500502615585,171.435182018725,261.6504432606525,170.61120441245,255.95829902651295,170.8211036296C250.26615479237344,171.03100284675,244.5814733250005,172.27477888732503,238.8967918576275,172.9321780193375C233.21211039025457,173.58957715135003,227.52742892288157,173.6605993748,221.84274745550863,173.37315843040003C216.15806598813563,173.08571748600002,210.47338452076266,172.43981337374998,204.78091581850288,172.152432343125C199.0884471162431,171.86505131250001,193.38819117909648,171.93619336350002,187.69572247683672,173.8320019377625C182.00325377457693,175.727810512025,176.31857230720394,179.44828560955,170.63389083983097,183.38862763277498C164.949209372458,187.328969656,159.26452790508503,191.489178604925,153.57984643771204,195.2582128641625C147.89516497033904,199.0272471234,142.21048350296607,202.40510669295,136.5180148007063,204.52063492997502C130.8255460984465,206.63616316700003,125.12529016129992,207.48936007150004,119.43282145904014,208.23535028275C113.74035275678035,208.98134049400002,108.05567128940739,209.62012401200002,102.3709898220344,211.44365402225003C96.68630835466143,213.2671840325,91.00162688728847,216.27546053499998,85.31694541991548,218.5075649975C79.63226395254252,220.73966946,73.94758248516952,222.19560188250003,68.25511378290975,221.70893339320003C62.56264508064995,221.22226490390003,56.86238914350336,218.79299550279998,51.16992044124357,217.4844557823625C45.47745173898378,216.175916061925,39.79277027161081,215.98810602215,34.108088804237845,215.763387568125C28.42340733686487,215.5386691141,22.738725869491898,215.277042245825,17.054044402118922,215.4671110981C11.369362934745949,215.65717995037497,5.684681467372974,216.2989445232,2.842340733686487,216.61982680961248L0,216.94070909602496Z"><title>Disc</title></path><path fill="#ff7f0e" d="M0,216.94070909602496L2.842340733686487,216.61982680961248C5.684681467372974,216.2989445232,11.369362934745949,215.65717995037497,17.054044402118922,215.4671110981C22.738725869491898,215.277042245825,28.42340733686487,215.5386691141,34.108088804237845,215.763387568125C39.79277027161081,215.98810602215,45.47745173898378,216.175916061925,51.16992044124357,217.4844557823625C56.86238914350336,218.79299550279998,62.56264508064995,221.22226490390003,68.25511378290975,221.70893339320003C73.94758248516952,222.19560188250003,79.63226395254252,220.73966946,85.31694541991548,218.5075649975C91.00162688728847,216.27546053499998,96.68630835466143,213.2671840325,102.37098982203442,211.44365402225C108.05567128940739,209.62012401200002,113.74035275678035,208.98134049400002,119.43282145904014,208.23535028275C125.12529016129992,207.48936007150004,130.8255460984465,206.63616316700003,136.5180148007063,204.520634929975C142.21048350296607,202.40510669295,147.89516497033904,199.0272471234,153.57984643771204,195.14783885813753C159.26452790508503,191.268430592875,164.949209372458,186.88747363189998,170.63389083983097,182.311680018175C176.31857230720394,177.73588640444999,182.00325377457693,172.965256137975,187.69572247683672,168.86619699948747C193.38819117909648,164.767137861,199.0884471162431,161.3396498505,204.78091581850288,156.838518609125C210.47338452076266,152.33738736775,216.15806598813563,146.76261289549998,221.8427474555086,140.39767939515C227.52742892288157,134.0327458948,233.21211039025457,126.87765336635,238.8967918576275,120.30011406336251C244.5814733250005,113.72257476037502,250.26615479237344,107.72258868285,255.95829902651295,103.1407122932C261.6504432606525,98.55883590354999,267.3500502615585,95.395069201775,273.042194495698,91.72995074379999C278.73433872983753,88.064832285825,284.4190201972105,83.89836207165001,290.10370166458347,81.13682808520002C295.78838313195644,78.37529409875002,301.4730645993294,77.01869634002502,307.1577460667024,74.2564736084375C312.84242753407534,71.49425087684999,318.5271090014483,67.32640317239998,324.2195777037081,63.71414047549997C329.91204640596794,60.10187777859997,335.61230234311455,57.04520008924998,341.30509551349456,51.772918915612486C346.99788868387463,46.500637741975,352.6832190874882,39.01275308405001,358.36822502298145,35.40495376448751C364.0532309584748,31.797154444925017,369.7379124258477,32.069440463725016,375.42259389322066,32.59183571048751C381.10727536059363,33.11423095725001,386.79195682796654,33.886735431975,392.4844255302264,35.695984771237484C398.1768942324862,37.50523411049998,403.8771501696328,40.351228314299966,409.56961887189254,39.91908019298747C415.2620875741524,39.48693207167497,420.94676904152533,35.77664162524997,426.6314505088983,32.275009558299985C432.31613197627127,28.773377491350004,438.0008134436442,25.48040380387502,443.6854949110172,24.80061852105878C449.37017637839017,24.12083323824253,455.05485784576314,26.054236360085017,460.74732654802284,28.973676498836255C466.4397952502827,31.893116637587493,472.14005118742926,35.79859379324748,477.8325198896891,39.939609796238734C483.5249885919489,44.080625799229985,489.2096700593218,48.45718064955252,494.89435152669483,52.818051552626265C500.5790329940678,57.17892245570001,506.26371446144077,61.52410941152499,511.9483959288137,64.06611616640748C517.6330773961868,66.60812292128998,523.3177588635598,67.34694947522999,529.0102275658195,68.91405609500374C534.7026962680793,70.4811627147775,540.4029522052259,72.87654940038497,546.0954209074856,75.17070818305247C551.7878896097454,77.46486696571996,557.4725710771185,79.65779784544748,563.1572525444914,83.12086579592624C568.8419340118644,86.58393374640498,574.5266154792374,91.31713876763502,580.21097247849,96.46513145519252C585.8953294777427,101.61312414275004,591.5793620088751,107.17590449663503,597.2715062430146,112.02503259634877C602.9636504771541,116.87416069606252,608.6639064143008,121.009636541605,614.3566995846808,124.65616924289499C620.0494927550609,128.30270194418497,625.7348231586744,131.46029150122249,631.4198290941677,133.67060023685124C637.104835029661,135.88090897248,642.789516497034,137.1439368867,648.4741979644069,139.14410200972625C654.1588794317798,141.1442671327525,659.8435608991527,143.881569464585,665.5360296014126,146.56913405706874C671.2284983036724,149.25669864955248,676.928754240819,151.8945255026875,682.6212229430788,154.794956458005C688.3136916453386,157.6953874133225,693.9983731127114,160.8584224708225,699.6830545800844,164.01766677635376C705.3677360474575,167.176911081885,711.0524175148306,170.3323646354475,716.7370989822035,175.15404593996752C722.4217804495765,179.9757272444875,728.1064619169493,186.46363629996497,733.7989306192093,192.5981510156C739.491399321469,198.732665731235,745.1916552586157,204.5137861070275,750.8841239608754,210.46596756028748C756.5765926631351,216.4181490135475,762.261274130508,222.54139154427503,767.945955597881,227.70855522875001C773.6306370652541,232.875718913225,779.315318532627,237.0868037514475,782.1576592663135,239.19234617055875L785,241.29788858966998L785,254.10998978234997L782.1576592663135,252.50882608307873C779.315318532627,250.9076623838075,773.6306370652541,247.70533498526495,767.945955597881,244.05903905929998C762.261274130508,240.41274313333497,756.5765926631351,236.3224786799475,750.8841239608754,232.647859750535C745.1916552586157,228.97324082112252,739.491399321469,225.714267415685,733.7989306192093,222.154505074075C728.1064619169493,218.594742732465,722.4217804495765,214.73419145468247,716.7370989822035,211.88815979321998C711.0524175148306,209.0421281317575,705.3677360474575,207.21061608661498,699.6830545800844,205.83255935074374C693.9983731127114,204.4545026148725,688.3136916453386,203.52990118827248,682.6212229430788,202.13308805778C676.928754240819,200.73627492728747,671.2284983036724,198.86725009290248,665.5360296014126,196.41271276934376C659.8435608991527,193.95817544578497,654.1588794317798,190.91812563305248,648.4741979644069,188.41600853345122C642.789516497034,185.91389143384995,637.104835029661,183.94970704737997,631.4198290941677,181.4188091321262C625.7348231586744,178.88791121687245,620.0494927550609,175.79029977283497,614.3566995846808,172.22244820457C608.6639064143008,168.654596636305,602.9636504771541,164.61650494381252,597.2715062430146,159.21897244644876C591.5793620088751,153.82143994908503,585.8953294777427,147.06446664684998,580.21097247849,139.1742629016425C574.5266154792374,131.28405915643498,568.8419340118644,122.26062496825496,563.1572525444914,114.44624721087622C557.4725710771185,106.63186945349749,551.7878896097454,100.02654812692002,546.0954209074856,93.12218395377751C540.4029522052259,86.21781978063503,534.7026962680793,79.01441276092751,529.0102275658195,74.42242435542875C523.3177588635598,69.83043594992999,517.6330773961868,67.84986615863998,511.9483959288137,64.68698778508248C506.26371446144077,61.52410941152499,500.5790329940678,57.17892245570001,494.89435152669483,52.818051552626265C489.2096700593218,48.45718064955252,483.5249885919489,44.080625799229985,477.8325198896891,39.939609796238734C472.14005118742926,35.79859379324748,466.4397952502827,31.893116637587493,460.74732654802295,28.973676498836255C455.05485784576314,26.054236360085017,449.37017637839017,24.12083323824253,443.6854949110172,24.800618521058777C438.0008134436442,25.48040380387502,432.31613197627127,28.773377491350004,426.6314505088983,32.275009558299985C420.94676904152533,35.77664162524997,415.2620875741524,39.48693207167497,409.56961887189254,39.91908019298747C403.8771501696328,40.351228314299966,398.1768942324862,37.50523411049998,392.4844255302264,35.695984771237484C386.79195682796654,33.886735431975,381.10727536059363,33.11423095725001,375.42259389322066,32.59183571048751C369.7379124258477,32.069440463725016,364.0532309584748,31.797154444925017,358.36822502298145,35.40495376448751C352.6832190874882,39.01275308405001,346.99788868387463,46.500637741975,341.30509551349456,51.772918915612486C335.61230234311455,57.04520008924998,329.91204640596794,60.10187777859997,324.2195777037081,63.71414047549998C318.5271090014483,67.32640317239998,312.84242753407534,71.49425087684999,307.1577460667024,74.2564736084375C301.4730645993294,77.01869634002502,295.78838313195644,78.37529409875002,290.10370166458347,81.13682808520001C284.4190201972105,83.89836207165001,278.73433872983753,88.064832285825,273.042194495698,91.72995074379999C267.3500502615585,95.395069201775,261.6504432606525,98.55883590354999,255.95829902651295,103.1407122932C250.26615479237344,107.72258868285,244.5814733250005,113.72257476037502,238.8967918576275,120.30011406336251C233.21211039025457,126.87765336635,227.52742892288157,134.0327458948,221.84274745550863,140.39767939515C216.15806598813563,146.76261289549998,210.47338452076266,152.33738736775,204.78091581850288,156.838518609125C199.0884471162431,161.3396498505,193.38819117909648,164.767137861,187.69572247683672,168.8661969994875C182.00325377457693,172.965256137975,176.31857230720394,177.73588640444999,170.63389083983097,182.311680018175C164.949209372458,186.88747363189998,159.26452790508503,191.268430592875,153.57984643771204,195.14783885813748C147.89516497033904,199.0272471234,142.21048350296607,202.40510669295,136.5180148007063,204.52063492997502C130.8255460984465,206.63616316700003,125.12529016129992,207.48936007150004,119.43282145904014,208.23535028275C113.74035275678035,208.98134049400002,108.05567128940739,209.62012401200002,102.3709898220344,211.44365402225003C96.68630835466143,213.2671840325,91.00162688728847,216.27546053499998,85.31694541991548,218.5075649975C79.63226395254252,220.73966946,73.94758248516952,222.19560188250003,68.25511378290975,221.70893339320003C62.56264508064995,221.22226490390003,56.86238914350336,218.79299550279998,51.16992044124357,217.4844557823625C45.47745173898378,216.175916061925,39.79277027161081,215.98810602215,34.108088804237845,215.763387568125C28.42340733686487,215.5386691141,22.738725869491898,215.277042245825,17.054044402118922,215.4671110981C11.369362934745949,215.65717995037497,5.684681467372974,216.2989445232,2.842340733686487,216.61982680961248L0,216.94070909602496Z"><title>Download</title></path><path fill="#2ca02c" d="M0,216.94070909602496L2.842340733686487,216.61982680961248C5.684681467372974,216.2989445232,11.369362934745949,215.65717995037497,17.054044402118922,215.4671110981C22.738725869491898,215.277042245825,28.42340733686487,215.5386691141,34.108088804237845,215.763387568125C39.79277027161081,215.98810602215,45.47745173898378,216.175916061925,51.16992044124357,217.4844557823625C56.86238914350336,218.79299550279998,62.56264508064995,221.22226490390003,68.25511378290975,221.70893339320003C73.94758248516952,222.19560188250003,79.63226395254252,220.73966946,85.31694541991548,218.5075649975C91.00162688728847,216.27546053499998,96.68630835466143,213.2671840325,102.37098982203442,211.44365402225C108.05567128940739,209.62012401200002,113.74035275678035,208.98134049400002,119.43282145904014,208.23535028275C125.12529016129992,207.48936007150004,130.8255460984465,206.63616316700003,136.5180148007063,204.520634929975C142.21048350296607,202.40510669295,147.89516497033904,199.0272471234,153.57984643771204,195.14783885813753C159.26452790508503,191.268430592875,164.949209372458,186.88747363189998,170.63389083983097,182.311680018175C176.31857230720394,177.73588640444999,182.00325377457693,172.965256137975,187.69572247683672,168.86619699948747C193.38819117909648,164.767137861,199.0884471162431,161.3396498505,204.78091581850288,156.838518609125C210.47338452076266,152.33738736775,216.15806598813563,146.76261289549998,221.8427474555086,140.39767939515C227.52742892288157,134.0327458948,233.21211039025457,126.87765336635,238.8967918576275,120.30011406336251C244.5814733250005,113.72257476037502,250.26615479237344,107.72258868285,255.95829902651295,102.5458974182C261.6504432606525,97.36920615355,267.3500502615585,93.01580970177501,273.042194495698,88.5081185373C278.73433872983753,84.00042737282502,284.4190201972105,79.33844149565,290.10370166458347,76.6175173237C295.78838313195644,73.89659315174998,301.4730645993294,73.11673068502496,307.1577460667024,70.48003839693747C312.84242753407534,67.84334610884997,318.5271090014483,63.349823999399995,324.2195777037081,59.34831241674999C329.91204640596794,55.34680083409999,335.61230234311455,51.837299778249964,341.30509551349456,46.28539533611248C346.99788868387463,40.73349089397499,352.6832190874882,33.13918306555002,358.36822502298145,29.55093288423754C364.0532309584748,25.96268270292505,369.7379124258477,26.38049016872505,375.42259389322066,26.93778202248754C381.10727536059363,27.49507387625003,386.79195682796654,28.191850117975008,392.4844255302264,29.635170895987503C398.1768942324862,31.078491673999995,403.8771501696328,33.268356988300006,409.56961887189254,31.806049018487503C415.2620875741524,30.343741048675003,420.94676904152533,25.229259794750003,426.6314505088983,21.572293151300013C432.31613197627127,17.915326507850015,438.0008134436442,15.715874474875028,443.6854949110172,15.981709772558778C449.37017637839017,16.24754507024253,455.05485784576314,18.978667698585024,460.74732654802284,22.133560560058765C466.4397952502827,25.288453421532505,472.14005118742926,28.867116516137497,477.8325198896891,32.99962465675373C483.5249885919489,37.132132797369984,489.2096700593218,41.818485983997476,494.89435152669483,45.972190448498715C500.5790329940678,50.12589491299996,506.26371446144077,53.746950655374945,511.9483959288137,55.26732162674995C517.6330773961868,56.787692598124956,523.3177588635598,56.207378798499974,529.0102275658195,57.180669937001234C534.7026962680793,58.1539610755025,540.4029522052259,60.680857152129995,546.0954209074856,63.60769051870998C551.7878896097454,66.53452388528999,557.4725710771185,69.86129454182247,563.1572525444914,73.82337817002372C568.8419340118644,77.78546179822497,574.5266154792374,82.38285839809497,580.21097247849,88.28859130501996C585.8953294777427,94.19432421194499,591.5793620088751,101.40839342592498,597.2715062430146,106.52182391503123C602.9636504771541,111.63525440413748,608.6639064143008,114.64804616837,614.3566995846808,117.885559414775C620.0494927550609,121.12307266118,625.7348231586744,124.58530738975749,631.4198290941677,127.04708321513624C637.104835029661,129.50885904051498,642.789516497034,130.97017596269498,648.4741979644069,133.19950227016372C654.1588794317798,135.42882857763246,659.8435608991527,138.42616427039,665.5360296014126,141.28067042874122C671.2284983036724,144.13517658709247,676.928754240819,146.84685321103748,682.6212229430788,149.8460530281175C688.3136916453386,152.8452528451975,693.9983731127114,156.1319758554125,699.6830545800844,159.35843606709375C705.3677360474575,162.584896278775,711.0524175148306,165.75109369192253,716.7370989822035,170.6008044106375C722.4217804495765,175.4505151293525,728.1064619169493,181.983739153635,733.7989306192093,188.16147486831747C739.491399321469,194.33921058299998,745.1916552586157,200.16145798808247,750.8841239608754,206.0424221241375C756.5765926631351,211.9233862601925,762.261274130508,217.86306712721998,767.945955597881,222.98221087475997C773.6306370652541,228.10135462229997,779.315318532627,232.39996125035248,782.1576592663135,234.54926456437872L785,236.698567878405L785,241.29788858966998L782.1576592663135,239.19234617055875C779.315318532627,237.0868037514475,773.6306370652541,232.875718913225,767.945955597881,227.70855522875001C762.261274130508,222.54139154427503,756.5765926631351,216.4181490135475,750.8841239608754,210.46596756028748C745.1916552586157,204.5137861070275,739.491399321469,198.732665731235,733.7989306192093,192.5981510156C728.1064619169493,186.46363629996497,722.4217804495765,179.9757272444875,716.7370989822035,175.15404593996752C711.0524175148306,170.3323646354475,705.3677360474575,167.176911081885,699.6830545800844,164.01766677635376C693.9983731127114,160.8584224708225,688.3136916453386,157.6953874133225,682.6212229430788,154.79495645800498C676.928754240819,151.8945255026875,671.2284983036724,149.25669864955248,665.5360296014126,146.56913405706874C659.8435608991527,143.881569464585,654.1588794317798,141.1442671327525,648.4741979644069,139.14410200972625C642.789516497034,137.1439368867,637.104835029661,135.88090897248,631.4198290941677,133.67060023685124C625.7348231586744,131.46029150122249,620.0494927550609,128.30270194418497,614.3566995846808,124.65616924289499C608.6639064143008,121.009636541605,602.9636504771541,116.87416069606252,597.2715062430146,112.02503259634877C591.5793620088751,107.17590449663503,585.8953294777427,101.61312414275004,580.21097247849,96.46513145519252C574.5266154792374,91.31713876763502,568.8419340118644,86.58393374640498,563.1572525444914,83.12086579592624C557.4725710771185,79.65779784544748,551.7878896097454,77.46486696571996,546.0954209074856,75.17070818305247C540.4029522052259,72.87654940038497,534.7026962680793,70.4811627147775,529.0102275658195,68.91405609500374C523.3177588635598,67.34694947522999,517.6330773961868,66.60812292128998,511.9483959288137,64.06611616640748C506.26371446144077,61.52410941152499,500.5790329940678,57.17892245570001,494.89435152669483,52.818051552626265C489.2096700593218,48.45718064955252,483.5249885919489,44.080625799229985,477.8325198896891,39.939609796238734C472.14005118742926,35.79859379324748,466.4397952502827,31.893116637587493,460.74732654802295,28.973676498836255C455.05485784576314,26.054236360085017,449.37017637839017,24.12083323824253,443.6854949110172,24.800618521058777C438.0008134436442,25.48040380387502,432.31613197627127,28.773377491350004,426.6314505088983,32.275009558299985C420.94676904152533,35.77664162524997,415.2620875741524,39.48693207167497,409.56961887189254,39.91908019298747C403.8771501696328,40.351228314299966,398.1768942324862,37.50523411049998,392.4844255302264,35.695984771237484C386.79195682796654,33.886735431975,381.10727536059363,33.11423095725001,375.42259389322066,32.59183571048751C369.7379124258477,32.069440463725016,364.0532309584748,31.797154444925017,358.36822502298145,35.40495376448751C352.6832190874882,39.01275308405001,346.99788868387463,46.500637741975,341.30509551349456,51.772918915612486C335.61230234311455,57.04520008924998,329.91204640596794,60.10187777859997,324.2195777037081,63.71414047549998C318.5271090014483,67.32640317239998,312.84242753407534,71.49425087684999,307.1577460667024,74.2564736084375C301.4730645993294,77.01869634002502,295.78838313195644,78.37529409875002,290.10370166458347,81.13682808520001C284.4190201972105,83.89836207165001,278.73433872983753,88.064832285825,273.042194495698,91.72995074379999C267.3500502615585,95.395069201775,261.6504432606525,98.55883590354999,255.95829902651295,103.1407122932C250.26615479237344,107.72258868285,244.5814733250005,113.72257476037502,238.8967918576275,120.30011406336251C233.21211039025457,126.87765336635,227.52742892288157,134.0327458948,221.84274745550863,140.39767939515C216.15806598813563,146.76261289549998,210.47338452076266,152.33738736775,204.78091581850288,156.838518609125C199.0884471162431,161.3396498505,193.38819117909648,164.767137861,187.69572247683672,168.8661969994875C182.00325377457693,172.965256137975,176.31857230720394,177.73588640444999,170.63389083983097,182.311680018175C164.949209372458,186.88747363189998,159.26452790508503,191.268430592875,153.57984643771204,195.14783885813748C147.89516497033904,199.0272471234,142.21048350296607,202.40510669295,136.5180148007063,204.52063492997502C130.8255460984465,206.63616316700003,125.12529016129992,207.48936007150004,119.43282145904014,208.23535028275C113.74035275678035,208.98134049400002,108.05567128940739,209.62012401200002,102.3709898220344,211.44365402225003C96.68630835466143,213.2671840325,91.00162688728847,216.27546053499998,85.31694541991548,218.5075649975C79.63226395254252,220.73966946,73.94758248516952,222.19560188250003,68.25511378290975,221.70893339320003C62.56264508064995,221.22226490390003,56.86238914350336,218.79299550279998,51.16992044124357,217.4844557823625C45.47745173898378,216.175916061925,39.79277027161081,215.98810602215,34.108088804237845,215.763387568125C28.42340733686487,215.5386691141,22.738725869491898,215.277042245825,17.054044402118922,215.4671110981C11.369362934745949,215.65717995037497,5.684681467372974,216.2989445232,2.842340733686487,216.61982680961248L0,216.94070909602496Z"><title>Other</title></path><path fill="#d62728" d="M0,216.94070909602496L2.842340733686487,216.61982680961248C5.684681467372974,216.2989445232,11.369362934745949,215.65717995037497,17.054044402118922,215.4671110981C22.738725869491898,215.277042245825,28.42340733686487,215.5386691141,34.108088804237845,215.763387568125C39.79277027161081,215.98810602215,45.47745173898378,216.175916061925,51.16992044124357,217.4844557823625C56.86238914350336,218.79299550279998,62.56264508064995,221.22226490390003,68.25511378290975,221.70893339320003C73.94758248516952,222.19560188250003,79.63226395254252,220.73966946,85.31694541991548,218.5075649975C91.00162688728847,216.27546053499998,96.68630835466143,213.2671840325,102.37098982203442,211.44365402225C108.05567128940739,209.62012401200002,113.74035275678035,208.98134049400002,119.43282145904014,208.23535028275C125.12529016129992,207.48936007150004,130.8255460984465,206.63616316700003,136.5180148007063,204.520634929975C142.21048350296607,202.40510669295,147.89516497033904,199.0272471234,153.57984643771204,195.14783885813753C159.26452790508503,191.268430592875,164.949209372458,186.88747363189998,170.63389083983097,182.311680018175C176.31857230720394,177.73588640444999,182.00325377457693,172.965256137975,187.69572247683672,168.86619699948747C193.38819117909648,164.767137861,199.0884471162431,161.3396498505,204.78091581850288,156.838518609125C210.47338452076266,152.33738736775,216.15806598813563,146.76261289549998,221.8427474555086,140.39767939515C227.52742892288157,134.0327458948,233.21211039025457,126.87765336635,238.8967918576275,120.30011406336251C244.5814733250005,113.72257476037502,250.26615479237344,107.72258868285,255.95829902651295,102.5458974182C261.6504432606525,97.36920615355,267.3500502615585,93.01580970177501,273.042194495698,88.5081185373C278.73433872983753,84.00042737282502,284.4190201972105,79.33844149565,290.10370166458347,76.6175173237C295.78838313195644,73.89659315174998,301.4730645993294,73.11673068502496,307.1577460667024,70.48003839693747C312.84242753407534,67.84334610884997,318.5271090014483,63.349823999399995,324.2195777037081,59.34831241674999C329.91204640596794,55.34680083409999,335.61230234311455,51.837299778249964,341.30509551349456,46.28539533611248C346.99788868387463,40.73349089397499,352.6832190874882,33.13918306555002,358.36822502298145,29.55093288423754C364.0532309584748,25.96268270292505,369.7379124258477,26.38049016872505,375.42259389322066,26.93778202248754C381.10727536059363,27.49507387625003,386.79195682796654,28.191850117975008,392.4844255302264,29.635170895987503C398.1768942324862,31.078491673999995,403.8771501696328,33.268356988300006,409.56961887189254,31.806049018487503C415.2620875741524,30.343741048675003,420.94676904152533,25.229259794750003,426.6314505088983,21.572293151300013C432.31613197627127,17.915326507850015,438.0008134436442,15.715874474875028,443.6854949110172,15.981709772558778C449.37017637839017,16.24754507024253,455.05485784576314,18.978667698585024,460.74732654802284,22.133560560058765C466.4397952502827,25.288453421532505,472.14005118742926,28.867116516137497,477.8325198896891,32.99962465675373C483.5249885919489,37.132132797369984,489.2096700593218,41.818485983997476,494.89435152669483,45.972190448498715C500.5790329940678,50.12589491299996,506.26371446144077,53.746950655374945,511.9483959288137,55.243975500492446C517.6330773961868,56.74100034560996,523.3177588635598,56.11399429346998,529.0102275658195,56.53224924139624C534.7026962680793,56.95050418932249,540.4029522052259,58.41402013731499,546.0954209074856,60.60648605115248C551.7878896097454,62.79895196498998,557.4725710771185,65.72036784467248,563.1572525444914,69.40441335812373C568.8419340118644,73.08845887157499,574.5266154792374,77.535134018795,580.21097247849,83.24448140022001C585.8953294777427,88.95382878164502,591.5793620088751,95.92584839727499,597.2715062430146,100.79478688745625C602.9636504771541,105.66372537763749,608.6639064143008,108.42958274236999,614.3566995846808,111.26820238502499C620.0494927550609,114.10682202767998,625.7348231586744,117.0182039482575,631.4198290941677,118.70040463963625C637.104835029661,120.382605331015,642.789516497034,120.83562479319501,648.4741979644069,121.54279097441378C654.1588794317798,122.24995715563252,659.8435608991527,123.21127005589,665.5360296014126,123.93207257974125C671.2284983036724,124.65287510359248,676.928754240819,125.13316725103748,682.6212229430788,126.07371224561747C688.3136916453386,127.01425724019748,693.9983731127114,128.4150550819125,699.6830545800844,129.34575555084376C705.3677360474575,130.276456019775,711.0524175148306,130.7370591159225,716.7370989822035,129.9695575596875C722.4217804495765,129.2020560034525,728.1064619169493,127.206449794835,733.7989306192093,124.9006737252675C739.491399321469,122.5948976557,745.1916552586157,119.97895172518248,750.8841239608754,117.66030624243747C756.5765926631351,115.34166075969249,762.261274130508,113.32031572471998,767.945955597881,111.13130005875996C773.6306370652541,108.94228439279998,779.315318532627,106.5855980958525,782.1576592663135,105.40725494737876L785,104.22891179890502L785,236.698567878405L782.1576592663135,234.54926456437875C779.315318532627,232.39996125035248,773.6306370652541,228.10135462229997,767.945955597881,222.98221087476C762.261274130508,217.86306712721998,756.5765926631351,211.9233862601925,750.8841239608754,206.0424221241375C745.1916552586157,200.16145798808247,739.491399321469,194.33921058299998,733.7989306192093,188.16147486831747C728.1064619169493,181.983739153635,722.4217804495765,175.4505151293525,716.7370989822035,170.6008044106375C711.0524175148306,165.75109369192253,705.3677360474575,162.584896278775,699.6830545800844,159.35843606709375C693.9983731127114,156.1319758554125,688.3136916453386,152.8452528451975,682.6212229430788,149.8460530281175C676.928754240819,146.84685321103748,671.2284983036724,144.13517658709247,665.5360296014126,141.28067042874122C659.8435608991527,138.42616427039,654.1588794317798,135.42882857763246,648.4741979644069,133.19950227016375C642.789516497034,130.97017596269498,637.104835029661,129.50885904051498,631.4198290941677,127.04708321513624C625.7348231586744,124.58530738975749,620.0494927550609,121.12307266118,614.3566995846808,117.885559414775C608.6639064143008,114.64804616837,602.9636504771541,111.63525440413748,597.2715062430146,106.52182391503123C591.5793620088751,101.40839342592498,585.8953294777427,94.19432421194499,580.21097247849,88.28859130501998C574.5266154792374,82.38285839809497,568.8419340118644,77.78546179822497,563.1572525444914,73.82337817002372C557.4725710771185,69.86129454182247,551.7878896097454,66.53452388528999,546.0954209074856,63.60769051870998C540.4029522052259,60.680857152129995,534.7026962680793,58.1539610755025,529.0102275658195,57.180669937001234C523.3177588635598,56.207378798499974,517.6330773961868,56.787692598124956,511.9483959288137,55.267321626749954C506.26371446144077,53.746950655374945,500.5790329940678,50.12589491299996,494.89435152669483,45.972190448498715C489.2096700593218,41.818485983997476,483.5249885919489,37.132132797369984,477.8325198896891,32.99962465675373C472.14005118742926,28.867116516137497,466.4397952502827,25.288453421532505,460.74732654802295,22.133560560058765C455.05485784576314,18.978667698585024,449.37017637839017,16.24754507024253,443.6854949110172,15.981709772558778C438.0008134436442,15.715874474875028,432.31613197627127,17.915326507850015,426.6314505088983,21.572293151300006C420.94676904152533,25.229259794750003,415.2620875741524,30.343741048675003,409.56961887189254,31.806049018487503C403.8771501696328,33.268356988300006,398.1768942324862,31.078491673999995,392.4844255302264,29.635170895987503C386.79195682796654,28.191850117975008,381.10727536059363,27.49507387625003,375.42259389322066,26.93778202248754C369.7379124258477,26.38049016872505,364.0532309584748,25.96268270292505,358.36822502298145,29.55093288423754C352.6832190874882,33.13918306555002,346.99788868387463,40.73349089397499,341.30509551349456,46.28539533611248C335.61230234311455,51.837299778249964,329.91204640596794,55.34680083409999,324.2195777037081,59.34831241674999C318.5271090014483,63.349823999399995,312.84242753407534,67.84334610884997,307.1577460667024,70.48003839693747C301.4730645993294,73.11673068502496,295.78838313195644,73.89659315174998,290.10370166458347,76.6175173237C284.4190201972105,79.33844149565,278.73433872983753,84.00042737282502,273.042194495698,88.5081185373C267.3500502615585,93.01580970177501,261.6504432606525,97.36920615355,255.95829902651295,102.5458974182C250.26615479237344,107.72258868285,244.5814733250005,113.72257476037502,238.8967918576275,120.30011406336251C233.21211039025457,126.87765336635,227.52742892288157,134.0327458948,221.84274745550863,140.39767939515C216.15806598813563,146.76261289549998,210.47338452076266,152.33738736775,204.78091581850288,156.838518609125C199.0884471162431,161.3396498505,193.38819117909648,164.767137861,187.69572247683672,168.8661969994875C182.00325377457693,172.965256137975,176.31857230720394,177.73588640444999,170.63389083983097,182.311680018175C164.949209372458,186.88747363189998,159.26452790508503,191.268430592875,153.57984643771204,195.14783885813748C147.89516497033904,199.0272471234,142.21048350296607,202.40510669295,136.5180148007063,204.52063492997502C130.8255460984465,206.63616316700003,125.12529016129992,207.48936007150004,119.43282145904014,208.23535028275C113.74035275678035,208.98134049400002,108.05567128940739,209.62012401200002,102.3709898220344,211.44365402225003C96.68630835466143,213.2671840325,91.00162688728847,216.27546053499998,85.31694541991548,218.5075649975C79.63226395254252,220.73966946,73.94758248516952,222.19560188250003,68.25511378290975,221.70893339320003C62.56264508064995,221.22226490390003,56.86238914350336,218.79299550279998,51.16992044124357,217.4844557823625C45.47745173898378,216.175916061925,39.79277027161081,215.98810602215,34.108088804237845,215.763387568125C28.42340733686487,215.5386691141,22.738725869491898,215.277042245825,17.054044402118922,215.4671110981C11.369362934745949,215.65717995037497,5.684681467372974,216.2989445232,2.842340733686487,216.61982680961248L0,216.94070909602496Z"><title>Streaming</title></path><path fill="#8c564b" d="M0,92.91251584102503L2.842340733686487,93.16825518211253C5.684681467372974,93.42399452320002,11.369362934745949,93.935473205375,17.054044402118922,94.26239719560003C22.738725869491898,94.58932118582503,28.42340733686487,94.73169048410004,34.108088804237845,93.61797527312503C39.79277027161081,92.50426006215002,45.47745173898378,90.13446034192502,51.16992044124357,85.8608128873625C56.86238914350336,81.5871654328,62.56264508064995,75.40967024390001,68.25511378290975,70.53258474820001C73.94758248516952,65.65549925250002,79.63226395254252,62.07882345000002,85.31694541991548,64.36128285000002C91.00162688728847,66.64374225000002,96.68630835466143,74.78533685250001,102.37098982203442,80.75510825024999C108.05567128940739,86.724879648,113.74035275678035,90.52282784099998,119.43282145904014,92.73088942599999C125.12529016129992,94.93895101099999,130.8255460984465,95.557125988,136.5180148007063,97.820455324725C142.21048350296607,100.08378466145,147.89516497033904,103.9922683579,153.57984643771204,105.8142103558875C159.26452790508503,107.63615235387499,164.949209372458,107.3715526534,170.63389083983097,106.055606034425C176.31857230720394,104.73965941545002,182.00325377457693,102.37236587797501,187.69572247683672,101.56461245973752C193.38819117909648,100.75685904150002,199.0884471162431,101.50864574250004,204.78091581850288,101.30979883187503C210.47338452076266,101.11095192125003,216.15806598813563,99.96147139900002,221.8427474555086,97.26582624665002C227.52742892288157,94.57018109430003,233.21211039025457,90.32837131185003,238.8967918576275,86.96349063461253C244.5814733250005,83.59860995737502,250.26615479237344,81.11065838535,255.95829902651295,79.80448894295C261.6504432606525,78.49831950055,267.3500502615585,78.373932187775,273.042194495698,76.83159566555001C278.73433872983753,75.289259143325,284.4190201972105,72.32897341165001,290.10370166458347,70.905700611575C295.78838313195644,69.48242781150002,301.4730645993294,69.59616794302501,307.1577460667024,67.48011586303751C312.84242753407534,65.36406378305,318.5271090014483,61.018219491550006,324.2195777037081,57.181185073575C329.91204640596794,53.3441506556,335.61230234311455,50.01592611114999,341.30509551349456,44.547683792762506C346.99788868387463,39.07944147437501,352.6832190874882,31.47118138205002,358.36822502298145,27.855162409762528C364.0532309584748,24.239143437475033,369.7379124258477,24.615365585225025,375.42259389322066,25.10958148598752C381.10727536059363,25.603797386750013,386.79195682796654,26.21600704052501,392.4844255302264,27.686072813012498C398.1768942324862,29.156138585499985,403.8771501696328,31.484060476699963,409.56961887189254,30.13106327576246C415.2620875741524,28.77806607482496,420.94676904152533,23.74414978174997,426.6314505088983,20.13252400427498C432.31613197627127,16.520898226799986,438.0008134436442,14.331562964924984,443.6854949110172,14.631061142958742C449.37017637839017,14.9305593209925,455.05485784576314,17.718890938935022,460.74732654802284,20.890610841858773C466.4397952502827,24.062330744782525,472.14005118742926,27.617438932687506,477.8325198896891,31.789079484653755C483.5249885919489,35.96072003662001,489.2096700593218,40.748892952647516,494.89435152669483,44.96474328869877C500.5790329940678,49.18059362475001,506.26371446144077,52.824121380825,511.9483959288137,54.34980871114249C517.6330773961868,55.87549604145999,523.3177588635598,55.28334294601999,529.0102275658195,55.76198767552123C534.7026962680793,56.240632405022495,540.4029522052259,57.790074959464995,546.0954209074856,60.034012986052495C551.7878896097454,62.27795101263998,557.4725710771185,65.21638451137247,563.1572525444914,68.90716233737622C568.8419340118644,72.59794016337997,574.5266154792374,77.04106231665499,580.21097247849,82.65464374743C585.8953294777427,88.268225178205,591.5793620088751,95.05226588647999,597.2715062430146,99.80662276052124C602.9636504771541,104.5609796345625,608.6639064143008,107.28565267437,614.3566995846808,110.03388350300501C620.0494927550609,112.78211433164,625.7348231586744,115.55390294910251,631.4198290941677,117.08128865083876C637.104835029661,118.60867435257501,642.789516497034,118.891657138585,648.4741979644069,119.40551538873875C654.1588794317798,119.91937363889251,659.8435608991527,120.66410735319,665.5360296014126,121.15088572320873C671.2284983036724,121.6376640932275,676.928754240819,121.8664871189675,682.6212229430788,122.5944680957C688.3136916453386,123.3224490724325,693.9983731127114,124.5495880001575,699.6830545800844,125.15213779516874C705.3677360474575,125.75468759018001,711.0524175148306,125.73264825247752,716.7370989822035,124.6788188562125C722.4217804495765,123.62498945994751,728.1064619169493,121.53937000512,733.7989306192093,119.119223431285C739.491399321469,116.69907685745,745.1916552586157,113.9444031646075,750.8841239608754,111.5047572294825C756.5765926631351,109.06511129435751,762.261274130508,106.94049311695001,767.945955597881,104.5193946719225C773.6306370652541,102.098296226895,779.315318532627,99.38071751424748,782.1576592663135,98.02192815792374L785,96.66313880159998L785,104.22891179890502L782.1576592663135,105.40725494737876C779.315318532627,106.5855980958525,773.6306370652541,108.94228439279998,767.945955597881,111.13130005875998C762.261274130508,113.32031572471998,756.5765926631351,115.34166075969249,750.8841239608754,117.66030624243747C745.1916552586157,119.97895172518248,739.491399321469,122.5948976557,733.7989306192093,124.9006737252675C728.1064619169493,127.206449794835,722.4217804495765,129.2020560034525,716.7370989822035,129.9695575596875C711.0524175148306,130.7370591159225,705.3677360474575,130.276456019775,699.6830545800844,129.34575555084376C693.9983731127114,128.4150550819125,688.3136916453386,127.01425724019748,682.6212229430788,126.07371224561747C676.928754240819,125.13316725103748,671.2284983036724,124.65287510359248,665.5360296014126,123.93207257974125C659.8435608991527,123.21127005589,654.1588794317798,122.24995715563252,648.4741979644069,121.54279097441378C642.789516497034,120.83562479319501,637.104835029661,120.382605331015,631.4198290941677,118.70040463963625C625.7348231586744,117.0182039482575,620.0494927550609,114.10682202767998,614.3566995846808,111.26820238502499C608.6639064143008,108.42958274236999,602.9636504771541,105.66372537763749,597.2715062430146,100.79478688745625C591.5793620088751,95.92584839727499,585.8953294777427,88.95382878164502,580.21097247849,83.24448140022001C574.5266154792374,77.535134018795,568.8419340118644,73.08845887157499,563.1572525444914,69.40441335812373C557.4725710771185,65.72036784467248,551.7878896097454,62.79895196498998,546.0954209074856,60.60648605115248C540.4029522052259,58.41402013731499,534.7026962680793,56.95050418932249,529.0102275658195,56.53224924139624C523.3177588635598,56.11399429346998,517.6330773961868,56.74100034560996,511.9483959288137,55.243975500492446C506.26371446144077,53.746950655374945,500.5790329940678,50.12589491299996,494.89435152669483,45.972190448498715C489.2096700593218,41.818485983997476,483.5249885919489,37.132132797369984,477.8325198896891,32.99962465675373C472.14005118742926,28.867116516137497,466.4397952502827,25.288453421532505,460.74732654802295,22.133560560058765C455.05485784576314,18.978667698585024,449.37017637839017,16.24754507024253,443.6854949110172,15.981709772558778C438.0008134436442,15.715874474875028,432.31613197627127,17.915326507850015,426.6314505088983,21.572293151300006C420.94676904152533,25.229259794750003,415.2620875741524,30.343741048675003,409.56961887189254,31.806049018487503C403.8771501696328,33.268356988300006,398.1768942324862,31.078491673999995,392.4844255302264,29.635170895987503C386.79195682796654,28.191850117975008,381.10727536059363,27.49507387625003,375.42259389322066,26.93778202248754C369.7379124258477,26.38049016872505,364.0532309584748,25.96268270292505,358.36822502298145,29.55093288423754C352.6832190874882,33.13918306555002,346.99788868387463,40.73349089397499,341.30509551349456,46.28539533611248C335.61230234311455,51.837299778249964,329.91204640596794,55.34680083409999,324.2195777037081,59.34831241674999C318.5271090014483,63.349823999399995,312.84242753407534,67.84334610884997,307.1577460667024,70.48003839693747C301.4730645993294,73.11673068502496,295.78838313195644,73.89659315174998,290.10370166458347,76.6175173237C284.4190201972105,79.33844149565,278.73433872983753,84.00042737282502,273.042194495698,88.5081185373C267.3500502615585,93.01580970177501,261.6504432606525,97.36920615355,255.95829902651295,102.5458974182C250.26615479237344,107.72258868285,244.5814733250005,113.72257476037502,238.8967918576275,120.30011406336251C233.21211039025457,126.87765336635,227.52742892288157,134.0327458948,221.84274745550863,140.39767939515C216.15806598813563,146.76261289549998,210.47338452076266,152.33738736775,204.78091581850288,156.838518609125C199.0884471162431,161.3396498505,193.38819117909648,164.767137861,187.69572247683672,168.8661969994875C182.00325377457693,172.965256137975,176.31857230720394,177.73588640444999,170.63389083983097,182.311680018175C164.949209372458,186.88747363189998,159.26452790508503,191.268430592875,153.57984643771204,195.14783885813748C147.89516497033904,199.0272471234,142.21048350296607,202.40510669295,136.5180148007063,204.52063492997502C130.8255460984465,206.63616316700003,125.12529016129992,207.48936007150004,119.43282145904014,208.23535028275C113.74035275678035,208.98134049400002,108.05567128940739,209.62012401200002,102.3709898220344,211.44365402225003C96.68630835466143,213.2671840325,91.00162688728847,216.27546053499998,85.31694541991548,218.5075649975C79.63226395254252,220.73966946,73.94758248516952,222.19560188250003,68.25511378290975,221.70893339320003C62.56264508064995,221.22226490390003,56.86238914350336,218.79299550279998,51.16992044124357,217.4844557823625C45.47745173898378,216.175916061925,39.79277027161081,215.98810602215,34.108088804237845,215.763387568125C28.42340733686487,215.5386691141,22.738725869491898,215.277042245825,17.054044402118922,215.4671110981C11.369362934745949,215.65717995037497,5.684681467372974,216.2989445232,2.842340733686487,216.61982680961248L0,216.94070909602496Z"><title>Vinyl</title></path></g><g id="xAxis" transform="translate(0,360)" fill="none" font-size="10" font-family="sans-serif" text-anchor="middle"><path class="domain" stroke="currentColor" d="M0,0H785"/><g class="tick" opacity="1" transform="translate(34.108088804237845,0)"><line stroke="currentColor" y2="6"/><text fill="currentColor" y="9" dy="0.71em">1975</text></g><g class="tick" opacity="1" transform="translate(119.42503422415332,0)"><line stroke="currentColor" y2="6"/><text fill="currentColor" y="9" dy="0.71em">1980</text></g><g class="tick" opacity="1" transform="translate(204.7887030533897,0)"><line stroke="currentColor" y2="6"/><text fill="currentColor" y="9" dy="0.71em">1985</text></g><g class="tick" opacity="1" transform="translate(290.10370166458347,0)"><line stroke="currentColor" y2="6"/><text fill="currentColor" y="9" dy="0.71em">1990</text></g><g class="tick" opacity="1" transform="translate(375.42259389322066,0)"><line stroke="currentColor" y2="6"/><text fill="currentColor" y="9" dy="0.71em">1995</text></g><g class="tick" opacity="1" transform="translate(460.7395393131361,0)"><line stroke="currentColor" y2="6"/><text fill="currentColor" y="9" dy="0.71em">2000</text></g><g class="tick" opacity="1" transform="translate(546.1032081423724,0)"><line stroke="currentColor" y2="6"/><text fill="currentColor" y="9" dy="0.71em">2005</text></g><g class="tick" opacity="1" transform="translate(631.420153562288,0)"><line stroke="currentColor" y2="6"/><text fill="currentColor" y="9" dy="0.71em">2010</text></g><g class="tick" opacity="1" transform="translate(716.7370989822035,0)"><line stroke="currentColor" y2="6"/><text fill="currentColor" y="9" dy="0.71em">2015</text></g></g><text y="356" x="785" text-anchor="end" style="font-family: Arial, sans-serif; font-size: 12px; fill: rgb(123, 123, 123); font-weight: bold;">Year</text><text x="4" text-anchor="start" dominant-baseline="hanging" style="font-family: Arial, sans-serif; font-size: 12px; fill: rgb(123, 123, 123); font-weight: bold;">Revenues in millions (Adjusted for inflation)</text><g id="labels"><text x="255.95083625974644" y="225.582259996425" text-anchor="middle" alignment-baseline="middle" style="font-family: Arial, sans-serif; font-size: 10px; fill: black; font-weight: bold;">Tape</text><text x="443.6854949110172" y="172.25202765314998" text-anchor="middle" alignment-baseline="middle" style="font-family: Arial, sans-serif; font-size: 10px; fill: black; font-weight: bold;">Disc</text><text x="665.5282423665258" y="171.8085485274675" text-anchor="middle" alignment-baseline="middle" style="font-family: Arial, sans-serif; font-size: 10px; fill: black; font-weight: bold;">Download</text><text x="529.0024403309327" y="61.85642051402252" text-anchor="middle" alignment-baseline="middle" style="font-family: Arial, sans-serif; font-size: 10px; fill: black; font-weight: bold;">Other</text><text x="785" y="170.46373983865502" text-anchor="end" alignment-baseline="middle" style="font-family: Arial, sans-serif; font-size: 10px; fill: black; font-weight: bold;">Streaming</text><text x="85.31694541991548" y="138.8929423425" text-anchor="middle" alignment-baseline="middle" style="font-family: Arial, sans-serif; font-size: 10px; fill: black; font-weight: bold;">Vinyl</text></g></g><text x="4" y="4" style="font-family: Arial, sans-serif; font-size: 12px; fill: black; font-weight: bold; dominant-baseline: hanging;"/></g></g></svg>