<svg xmlns="http://www.w3.org/2000/svg" width="805" height="600"><rect width="805" height="600" x="0" y="0" fill="#FFFFFF" id="background"/><g id="viz" transform="translate(402.5,300)"><g id="cells"><path d="M-167.43157806499164,-110.71164307213598L-75.95590982628214,-89.73674298296795L-58.41751664152423,-96.9867382207274L-16.439857513404668,-202.82488949413653L-167.4315780649917,-289.99999999999994z" fill="#2ca02c" stroke="#FFFFFF" stroke-width="2" id="DETALLE DE SUELDO Y CARGAS SOCIALES (Neto)"/><path d="M50.42577927051989,-18.212459193958985L-8.434880675222002,-84.94069928335756L-58.41751664152423,-96.9867382207274L-75.95590982628214,-89.73674298296795L-120.13011827591116,-14.470819479833267L-77.2808932543876,75.71738314993156L-47.398545568437555,86.88704820968867L49.22577269598004,44.04907023416786z" fill="#ff7f0e" stroke="#FFFFFF" stroke-width="2" id="APORTES Y CONTRIBUCIONES"/><path d="M143.53565009109246,-110.46298711493314L89.10989492820325,-78.33965901134474L50.42577927051989,-18.212459193958985L49.22577269598004,44.04907023416786L55.196501760267985,50.94643712304509L151.4890716281775,105.87107704951853L253.90754211575305,46.73974554352702L254.72177461755183,-46.269648189430654z" fill="#cccccc" stroke="#FFFFFF" stroke-width="2" id="SERVICIOS PUBLICOS"/><path d="M49.22577269598004,44.04907023416786L-47.398545568437555,86.88704820968867L2.299188917566397,192.00589599285854L71.71856212689562,151.9266021834772L55.196501760267985,50.94643712304509z" fill="#1f77b4" stroke="#FFFFFF" stroke-width="2" id="ABONOS DE SERVICIOS"/><path d="M-8.434880675222002,-84.94069928335756L44.34705113566593,-120.54895328210497L54.426945660219175,-161.9099216052366L-16.439857513404633,-202.82488949413664L-58.41751664152423,-96.9867382207274z" fill="#7f7f7f" stroke="#FFFFFF" stroke-width="2" id="MANTENIMIENTO DE PARTES COMUNES"/><path d="M-167.43157806499153,99.43973856685265L-167.43157806499144,290L2.299188917566383,192.0058959928585L-47.398545568437555,86.88704820968867L-77.2808932543876,75.71738314993156z" fill="#cccccc" stroke="#FFFFFF" stroke-width="2" id="TRABAJOS DE REPARACIONES EN UNIDADES"/><path d="M151.4890716281775,105.87107704951853L55.196501760267985,50.94643712304509L71.71856212689563,151.9266021834772z" fill="#9467bd" stroke="#FFFFFF" stroke-width="2" id="GASTOS BANCARIOS"/><path d="M334.8631561299829,-5.684341886080802e-14L254.72177461755183,-46.2696481894306L253.90754211575305,46.73974554352699z" fill="#e377c2" stroke="#FFFFFF" stroke-width="2" id="GASTOS DE LIMPIEZA"/><path d="M-167.43157806499164,99.43973856685267L-77.2808932543876,75.71738314993156L-120.13011827591116,-14.470819479833267L-167.43157806499158,-14.714731522207659z" fill="#8c564b" stroke="#FFFFFF" stroke-width="2" id="GASTOS DE ADMINISTRACION"/><path d="M-75.95590982628214,-89.73674298296795L-167.43157806499164,-110.71164307213594L-167.43157806499153,-14.714731522207659L-120.13011827591116,-14.470819479833267z" fill="#17becf" stroke="#FFFFFF" stroke-width="2" id="PAGOS DEL PERIODO POR SEGUROS"/><path d="M89.10989492820325,-78.33965901134474L143.53565009109246,-110.46298711493314L54.42694566021916,-161.9099216052366L44.34705113566593,-120.54895328210497z" fill="#bcbd22" stroke="#FFFFFF" stroke-width="2" id="OTROS"/><path d="M89.10989492820325,-78.33965901134474L44.34705113566593,-120.54895328210497L-8.434880675222002,-84.94069928335756L50.42577927051989,-18.212459193958985z" fill="#d62728" stroke="#FFFFFF" stroke-width="2" id="DETALLE DE SUELDO Y CARGAS SOCIALES (Netos sumados)"/><path d="M-167.4315780649917,-290L-167.43157806499147,290L334.86315612998294,-5.684341886080802e-14z" fill="none" stroke="#FFFFFF" stroke-width="4"/></g><g id="labels"><text text-anchor="middle" dominant-baseline="text-before-edge" transform="translate(-105.62404185107586,-184.71886747907973)"><tspan x="3" y="0.2em" style="font-family: Arial, sans-serif; font-size: 10px; fill: black; font-weight: normal;">DETALLE DE SUELDO Y CARGAS SOCIALES (Neto)</tspan></text><text text-anchor="middle" dominant-baseline="text-before-edge" transform="translate(-33.414466620907774,-10.037384173384755)"><tspan x="3" y="0.2em" style="font-family: Arial, sans-serif; font-size: 10px; fill: black; font-weight: normal;">APORTES Y CONTRIBUCIONES</tspan></text><text text-anchor="middle" dominant-baseline="text-before-edge" transform="translate(153.61806619994064,-6.43258565495219)"><tspan x="3" y="0.2em" style="font-family: Arial, sans-serif; font-size: 10px; fill: black; font-weight: normal;">SERVICIOS PUBLICOS</tspan></text><text text-anchor="middle" dominant-baseline="text-before-edge" transform="translate(19.61276097544591,109.56956176784672)"><tspan x="3" y="0.2em" style="font-family: Arial, sans-serif; font-size: 10px; fill: black; font-weight: normal;">ABONOS DE SERVICIOS</tspan></text><text text-anchor="middle" dominant-baseline="text-before-edge" transform="translate(-1.2886099703377667,-143.33721878454952)"><tspan x="3" y="0.2em" style="font-family: Arial, sans-serif; font-size: 10px; fill: black; font-weight: normal;">MANTENIMIENTO DE PARTES COMUNES</tspan></text><text text-anchor="middle" dominant-baseline="text-before-edge" transform="translate(-99.10100699826951,165.69465679134242)"><tspan x="3" y="0.2em" style="font-family: Arial, sans-serif; font-size: 10px; fill: black; font-weight: normal;">TRABAJOS DE REPARACIONES EN UNIDADES</tspan></text><text text-anchor="middle" dominant-baseline="text-before-edge" transform="translate(94.43397821946948,97.3275470388105)"><tspan x="3" y="0.2em" style="font-family: Arial, sans-serif; font-size: 10px; fill: black; font-weight: normal;">GASTOS BANCARIOS</tspan></text><text text-anchor="middle" dominant-baseline="text-before-edge" transform="translate(283.28219530511916,-5.2974664589492875)"><tspan x="3" y="0.2em" style="font-family: Arial, sans-serif; font-size: 10px; fill: black; font-weight: normal;">GASTOS DE LIMPIEZA</tspan></text><text text-anchor="middle" dominant-baseline="text-before-edge" transform="translate(-132.90496502548115,37.23144511176772)"><tspan x="3" y="0.2em" style="font-family: Arial, sans-serif; font-size: 10px; fill: black; font-weight: normal;">GASTOS DE ADMINISTRACION</tspan></text><text text-anchor="middle" dominant-baseline="text-before-edge" transform="translate(-132.36176524159305,-68.11039240021933)"><tspan x="3" y="0.2em" style="font-family: Arial, sans-serif; font-size: 10px; fill: black; font-weight: normal;">PAGOS DEL PERIODO POR SEGUROS</tspan></text><text text-anchor="middle" dominant-baseline="text-before-edge" transform="translate(85.26352075466377,-122.2439904595386)"><tspan x="3" y="0.2em" style="font-family: Arial, sans-serif; font-size: 10px; fill: black; font-weight: normal;">OTROS</tspan></text><text text-anchor="middle" dominant-baseline="text-before-edge" transform="translate(43.104137619101806,-77.53407729251842)"><tspan x="3" y="0.2em" style="font-family: Arial, sans-serif; font-size: 10px; fill: black; font-weight: normal;">DETALLE DE SUELDO Y CARGAS SOCIALES (Netos sumados)</tspan></text></g></g></svg>